<svg width="1024" height="768" viewBox="0 0 1024 768" fill="none" xmlns="http://www.w3.org/2000/svg">
<path d="M286.499 607.296H262V542.881H287.969C295.944 542.881 302.763 544.16 308.425 546.718C314.114 549.276 318.47 552.946 321.491 557.726C324.513 562.507 326.024 568.242 326.024 574.931C326.024 581.683 324.472 587.481 321.369 592.324C318.293 597.147 313.801 600.848 307.894 603.427C302.015 606.006 294.883 607.296 286.499 607.296ZM269.635 602.012H286.05C293.236 602.012 299.252 600.921 304.097 598.741C308.942 596.56 312.576 593.446 314.999 589.399C317.422 585.352 318.633 580.53 318.633 574.931C318.606 569.374 317.408 564.594 315.04 560.589C312.699 556.584 309.215 553.512 304.587 551.373C299.987 549.234 294.298 548.165 287.52 548.165H269.635V602.012Z" fill="#4E4E4E"/>
<path d="M432.383 542.881L458.515 599.653H459.25L485.382 542.881H493.385L462.966 607.296H454.799L424.38 542.881H432.383Z" fill="#4E4E4E"/>
<path d="M526.85 542.881V607.296H519.215V542.881H526.85Z" fill="#4E4E4E"/>
<path d="M625.707 542.881V607.296H618.276L568.87 553.354H568.217V607.296H560.581V542.881H567.972L617.541 596.885H618.194V542.881H625.707Z" fill="#4E4E4E"/>
<path d="M724.931 563.01H717.255C716.683 560.809 715.649 558.775 714.152 556.909C712.682 555.021 710.831 553.375 708.599 551.971C706.367 550.566 703.835 549.475 701.004 548.699C698.173 547.924 695.111 547.536 691.817 547.536C686.536 547.536 681.718 548.595 677.363 550.712C673.035 552.83 669.564 555.944 666.951 560.054C664.365 564.143 663.072 569.154 663.072 575.088C663.072 581.064 664.365 586.097 666.951 590.186C669.564 594.274 673.035 597.378 677.363 599.496C681.718 601.592 686.536 602.641 691.817 602.641C695.111 602.641 698.173 602.253 701.004 601.477C703.835 600.701 706.367 599.621 708.599 598.237C710.831 596.833 712.682 595.187 714.152 593.299C715.649 591.412 716.683 589.368 717.255 587.166H724.931C724.251 590.123 722.971 592.88 721.093 595.438C719.242 597.975 716.874 600.198 713.988 602.106C711.13 604.014 707.837 605.503 704.107 606.572C700.378 607.642 696.281 608.176 691.817 608.176C684.794 608.176 678.561 606.824 673.116 604.119C667.672 601.393 663.398 597.556 660.295 592.607C657.219 587.659 655.681 581.819 655.681 575.088C655.681 568.357 657.219 562.518 660.295 557.569C663.398 552.621 667.672 548.794 673.116 546.089C678.561 543.363 684.794 542 691.817 542C696.281 542 700.378 542.535 704.107 543.604C707.837 544.653 711.13 546.141 713.988 548.07C716.874 549.979 719.242 552.201 721.093 554.738C722.971 557.276 724.251 560.033 724.931 563.01Z" fill="#4E4E4E"/>
<path d="M762 542.881V607.296H754.365V542.881H762Z" fill="#4E4E4E"/>
<path d="M432.383 542.881L458.515 599.653H459.25L485.382 542.881H493.385L462.966 607.296H454.799L424.38 542.881H432.383Z" fill="#4E4E4E"/>
<path d="M404.999 607.296L378.867 550.524H378.132L352 607.296H343.997L374.416 542.881L382.582 542.881L413.002 607.296H404.999Z" fill="#4E4E4E"/>
<path d="M512 102C567.228 102 617.228 124.381 653.421 160.566C656.698 163.841 659.859 167.232 662.903 170.727H677.673L677.674 189.912C699.342 221.873 712 260.436 712 301.956C712 343.473 699.343 382.034 677.677 413.995C677.676 443.33 677.675 472.665 677.673 502H346.327V414.001C324.659 382.039 312 343.476 312 301.956C312 260.436 324.659 221.872 346.327 189.91V170.727H347.694H361.097C364.141 167.232 367.302 163.841 370.579 160.566C406.772 124.381 456.772 102 512 102ZM542.828 326.723C542.683 329.226 542.415 331.612 542.098 333.774C541.538 337.597 541.083 341.176 540.725 344.618C540.364 348.087 540.093 351.456 539.904 354.83C539.763 357.331 539.706 360.259 539.643 363.451C539.554 367.958 539.455 372.982 539.122 377.862C539.006 379.563 538.601 381.488 538.045 383.605C540.782 387.721 543.307 391.162 545.122 393.381C546.808 395.445 548.2 397.457 549.388 399.458C550.574 401.457 551.547 403.429 552.402 405.42V405.425L552.408 405.44L552.41 405.439C553.541 408.071 554.666 410.69 555.435 413.652C557.618 422.064 561.302 430.54 565.598 438.173C570.469 446.828 576.109 454.37 581.224 459.486C583.908 462.17 585.21 466.886 586.467 471.438C586.998 473.363 587.522 475.258 588.15 476.951C589.375 480.253 590.965 482.48 593.879 481.438C603.103 477.226 611.947 472.324 620.342 466.798C619.634 465.902 618.633 465.034 617.287 464.564C615.811 464.048 613.89 464.001 611.427 464.89C607.528 466.297 604.398 466.098 601.829 464.965C599.289 463.844 597.371 461.833 595.828 459.573C590.537 451.825 588.022 444.018 585.686 436.77C583.909 431.251 582.237 426.065 579.534 421.607C579.05 420.809 577.388 418.33 575.457 415.451C574.001 413.279 572.397 410.887 571.159 409.012C570.572 408.124 570.245 407.635 569.961 407.21C568.704 405.332 568.082 404.403 567.668 403.355C567.253 402.304 567.1 401.3 566.798 399.314C566.677 398.512 566.535 397.581 566.458 397.105C566.294 396.087 566.093 394.962 565.841 393.764C565.598 392.609 565.304 391.387 564.946 390.133C564.148 387.332 563.269 385.661 562.458 384.118C561.423 382.146 560.487 380.366 559.896 377.002L559.885 376.917C559.405 372.644 558.065 366.028 556.207 359.243C554.639 353.518 552.701 347.671 550.6 343.013C548.607 338.595 547.137 336.061 546.003 334.107C544.524 331.558 543.583 329.936 542.828 326.723ZM537.077 387.048C536.925 387.569 536.768 388.099 536.608 388.637C535.59 392.078 534.465 395.877 533.676 399.873C533.245 402.057 533.244 404.334 533.243 406.618C533.242 409.074 533.24 411.538 532.756 413.989C531.888 418.387 530.869 420.702 530.039 422.588C529.353 424.147 528.811 425.379 528.656 427.365C528.573 428.433 528.59 429.715 528.738 431.364C528.888 433.036 529.179 435.13 529.644 437.808C530.684 443.791 530.436 450.318 530.191 456.767C529.841 465.989 529.498 475.045 533.053 481.638C537.19 489.306 546.157 491.343 553.046 492.908C554.589 493.259 556.034 493.587 557.316 493.948C568.306 491.366 578.942 487.864 589.138 483.529C587.601 482.39 586.5 480.362 585.587 477.901C584.951 476.186 584.4 474.191 583.84 472.164C582.678 467.952 581.473 463.589 579.292 461.408C574.01 456.125 568.207 448.374 563.217 439.508C558.823 431.699 555.047 423.002 552.797 414.335C552.092 411.618 550.999 409.073 549.901 406.517V406.512L549.895 406.497L549.893 406.498C549.076 404.596 548.153 402.724 547.039 400.846C545.926 398.971 544.612 397.073 543.008 395.111C541.446 393.199 539.367 390.4 537.077 387.048ZM514.467 491.912C514.904 490.103 515.103 487.881 515.009 485.578C514.889 482.623 514.282 479.575 513.074 477.149C511.027 473.039 509.883 469.02 509.41 464.913C508.973 461.123 509.112 457.272 509.64 453.214C509.467 452.88 509.301 452.539 509.143 452.192C508.214 450.156 507.539 447.892 507.062 445.539C506.713 443.812 506.47 442.035 506.312 440.265C506.135 438.29 506.065 436.327 506.07 434.455C506.075 432.747 506.629 429.557 507.304 425.67C507.968 421.848 508.751 417.34 509.227 413.073C510.194 404.421 510.068 396.195 509.941 387.82C509.894 384.743 509.847 381.648 509.847 379.023C509.847 378.428 509.828 376.724 509.799 374.552C509.686 374.937 509.568 375.324 509.446 375.715C507.824 380.901 507.859 386.626 507.893 392.281C507.916 396.076 507.939 399.841 507.477 403.475C506.824 408.601 505.827 412.551 504.93 416.107C503.453 421.959 502.255 426.706 503.48 433.618C504.956 441.94 504.797 448.791 504.641 455.478C504.511 461.106 504.382 466.617 505.273 472.79C505.437 473.924 506.058 475.642 506.854 477.248C507.568 478.688 508.393 479.988 509.109 480.613C511.206 482.441 511.131 484.2 511.043 486.279C511.004 487.216 510.96 488.239 511.218 489.331C511.234 489.399 511.423 489.598 511.72 489.874C512.226 490.347 512.932 490.863 513.69 491.353C513.967 491.533 514.226 491.719 514.467 491.912ZM490.831 498.055C490.481 496.801 490.555 495.256 490.846 493.55V493.545C491.088 492.12 491.497 490.57 491.911 488.995C492.656 486.164 493.424 483.245 493.167 481.13C492.629 476.717 490.736 472.305 488.593 467.307C484.145 456.936 478.653 444.128 481.225 423.068C481.481 420.977 481.804 418.756 482.184 416.338C482.585 413.78 482.98 411.427 483.414 408.847C484.087 404.846 484.588 401.86 484.919 399.482C485.247 397.12 485.412 395.338 485.419 393.72C485.433 390.595 484.853 387.869 483.715 382.522C483.44 381.23 483.134 379.793 482.811 378.239C481.645 379.926 480.489 381.697 479.303 383.513C477.088 386.904 474.771 390.451 472.066 393.964C470.222 396.358 468.393 398.332 466.649 400.213C462.991 404.16 459.722 407.686 457.831 413.66C455.371 421.43 449.575 429.533 443.99 437.341C441.314 441.083 438.687 444.756 436.5 448.308C435.196 450.425 433.927 454.53 432.933 458.93C431.76 464.123 430.986 469.674 430.986 472.888C430.986 473.822 430.715 476.718 429.682 478.88C429.359 479.556 428.958 480.174 428.463 480.67C447.755 489.7 468.748 495.699 490.831 498.055ZM482.071 374.578C480.903 368.443 479.539 357.432 479.7 344.468C479.771 338.776 480.137 332.708 480.942 326.514C475.599 333.015 472.176 339.119 469.999 344.016C467.776 349.018 466.852 352.766 466.51 354.366C466.18 355.905 465.936 357.085 465.68 358.324C464.161 365.673 462.278 374.785 459.889 380.121L459.853 380.2C459.616 380.746 459.454 381.11 459.294 381.468C458.039 384.286 456.905 386.832 456.954 390.245C456.962 390.997 456.36 391.613 455.608 391.622C454.857 391.631 454.24 391.029 454.231 390.277C454.224 389.769 454.238 389.28 454.27 388.807C452.245 391.181 449.864 393.557 447.061 396.353C445.9 397.512 444.665 398.744 443.347 400.085C441.741 401.719 440.135 403.423 438.722 405.126C437.346 406.785 436.178 408.412 435.422 409.916C430.96 418.793 427.08 435.074 424.427 446.209C423.343 450.758 422.461 454.458 421.81 456.515C421.15 458.596 420.414 460.453 419.59 461.905C418.701 463.469 417.678 464.592 416.494 465.085C415.654 465.594 414.662 465.76 413.561 465.944C411.664 466.26 409.327 466.651 408.174 469.68C413.596 473.042 419.194 476.148 424.949 478.982C425.224 479.091 425.466 479.141 425.679 479.141C425.968 479.141 426.219 479.027 426.435 478.84C426.74 478.575 427.002 478.174 427.226 477.706C428.04 476.004 428.252 473.652 428.252 472.888C428.252 469.514 429.056 463.724 430.274 458.332C431.33 453.663 432.709 449.254 434.172 446.878C436.361 443.322 439.04 439.577 441.769 435.761C447.227 428.131 452.891 420.213 455.226 412.838C457.299 406.289 460.769 402.545 464.652 398.356C466.361 396.513 468.153 394.579 469.909 392.298C472.551 388.867 474.835 385.371 477.018 382.029C478.716 379.429 480.355 376.92 482.071 374.578ZM482.423 317.53C482.588 316.716 482.76 315.901 482.942 315.087C483.23 313.468 483.423 311.859 483.602 310.364C483.859 308.229 484.089 306.311 484.531 304.803C483.793 303.229 483.376 301.576 483.185 299.917C482.846 296.963 483.237 294.005 483.81 291.486C485.398 284.505 485.346 284.365 484.249 281.479L484.247 281.479C483.75 280.172 483.065 278.373 482.229 275.437C481.678 273.5 480.932 270.807 480.198 268.157C478.644 262.543 477.149 257.143 476.265 254.746C475.216 251.899 474.172 249.772 472.753 248.55C471.448 247.426 469.691 247.033 467.091 247.5C464.857 247.902 461.826 248.446 458.524 248.865C455.195 249.287 451.599 249.58 448.275 249.47C444.146 249.334 440.381 248.893 436.349 248.42C434.065 248.152 431.697 247.874 429.384 247.656C424.526 247.199 419.626 247.138 414.985 247.079C411.43 247.035 408.025 246.992 404.95 246.785C399.065 246.388 394.644 245.582 390.902 244.899C386.752 244.143 383.468 243.544 379.963 243.873C372.771 244.547 367.182 244.512 362.935 244.164C354.982 243.513 351.398 241.666 350.922 241.296C350.133 240.683 349.523 239.978 349.06 239.215V413.156C355.996 423.295 363.852 432.756 372.511 441.414C382.591 451.491 393.758 460.483 405.819 468.199C407.497 464.192 410.589 463.675 413.113 463.254C413.97 463.11 414.739 462.982 415.125 462.725L415.26 462.635L415.408 462.581C415.997 462.364 416.606 461.639 417.219 460.56C417.933 459.304 418.594 457.62 419.204 455.693C419.825 453.733 420.697 450.076 421.768 445.58C424.448 434.335 428.365 417.895 432.988 408.699C433.86 406.965 435.138 405.172 436.619 403.386C438.065 401.644 439.73 399.877 441.404 398.174C442.724 396.831 443.969 395.589 445.139 394.421C450.911 388.661 454.83 384.751 457.401 379.01C459.67 373.942 461.52 364.995 463.011 357.78C463.334 356.218 463.643 354.725 463.84 353.801C464.2 352.12 465.171 348.183 467.512 342.917C469.839 337.681 473.52 331.137 479.296 324.224C480.857 322.356 481.801 319.996 482.423 317.53ZM595.051 483.908C595.006 483.931 594.96 483.952 594.911 483.971C579.131 491.167 562.252 496.374 544.594 499.267H674.94V417.931C668.475 426.994 661.274 435.495 653.421 443.346C636.646 460.117 616.904 473.921 595.051 483.908ZM349.06 228.588C349.567 227.436 350.124 226.622 350.357 226.476C352.819 224.933 355.72 224.904 358.832 224.873C359.88 224.863 360.955 224.852 362.101 224.769C363.696 224.655 364.796 224.224 365.78 223.839C367.605 223.125 369.116 222.534 372.105 223.509C373.818 224.068 375.439 224.879 377.095 225.708C380.041 227.182 383.11 228.718 386.905 228.718C388.609 228.718 390.711 228.619 392.681 228.525C394.494 228.44 396.197 228.359 397.392 228.362C409.724 228.388 415.235 229.091 420.412 229.75C423.269 230.114 426.023 230.466 429.839 230.679C439.023 231.192 444.42 230.852 448.683 230.045C447.802 229.544 446.876 229.04 445.946 228.549C442.908 226.945 439.817 225.473 438.079 224.67C433.395 222.507 429.614 221.576 425.276 220.509C420.964 219.447 416.115 218.254 409.289 215.616C406.167 214.41 403.031 212.903 399.63 210.837C396.268 208.796 392.661 206.215 388.567 202.848C384.893 200.586 382.45 200.308 380.271 200.062C378.932 199.91 377.68 199.768 376.264 199.254C375.123 198.841 373.759 198.144 372.314 197.305C370.915 196.493 369.413 195.531 367.962 194.562C366.367 193.497 364.781 192.387 363.489 191.482C363.343 191.379 363.898 191.767 362.397 190.724C361.766 190.285 361.067 189.454 360.518 188.59C359.953 187.702 359.507 186.702 359.415 185.982C359.267 184.816 358.738 184.019 358.276 183.324C357.519 182.184 356.879 181.221 357.122 179.799C354.313 183.354 351.624 187.009 349.06 190.756V228.588ZM453.043 228.99C454.197 228.656 455.337 228.292 456.536 227.909C459.924 226.826 463.776 225.595 469.664 224.446C468.769 223.718 467.782 223.003 466.756 222.316C464.263 220.647 461.54 219.146 459.315 218.02C456.236 216.462 452.896 215.046 449.805 213.999C446.947 213.031 444.327 212.385 442.366 212.246C440.855 212.139 438.931 211.631 437.043 210.834C435.31 210.102 433.587 209.121 432.221 207.976C430.104 206.203 428.336 204.876 426.599 203.772C424.873 202.675 423.171 201.796 421.176 200.913C416.214 198.716 411.943 197.847 407.803 197.005C402.3 195.885 397.019 194.81 390.628 190.902C388.012 189.302 386.841 187.785 385.639 186.226C384.433 184.663 383.19 183.051 380.061 181.285C379.515 180.977 378.411 180.534 377.349 180.213C376.584 179.981 375.9 179.822 375.609 179.856C373.941 180.055 372.494 179.201 370.692 178.138C369.789 177.605 368.781 177.01 367.641 176.507C367.31 176.361 366.728 176.159 366.136 176.204C365.812 176.228 365.476 176.335 365.178 176.588C364.35 177.296 363.325 177.489 362.333 177.676C361.709 177.794 361.107 177.908 361.014 178.033C359.448 180.16 359.92 180.87 360.55 181.819C361.173 182.756 361.887 183.83 362.117 185.641C362.156 185.949 362.444 186.53 362.824 187.127C363.201 187.72 363.629 188.255 363.956 188.482C364.792 189.064 364.113 188.596 365.048 189.251C366.293 190.123 367.82 191.193 369.478 192.299C370.867 193.226 372.314 194.153 373.681 194.946C375.002 195.713 376.222 196.34 377.193 196.692C378.296 197.092 379.395 197.217 380.57 197.35C383.05 197.631 385.833 197.946 390.075 200.579L390.156 200.629L390.225 200.686C394.254 204.004 397.778 206.529 401.04 208.51C404.283 210.48 407.281 211.92 410.271 213.076C416.917 215.644 421.687 216.818 425.927 217.861C430.405 218.963 434.307 219.923 439.221 222.193C440.982 223.007 444.117 224.501 447.216 226.136C447.795 226.442 448.372 226.752 448.939 227.064C450.148 227.664 451.533 228.305 453.043 228.99ZM473.14 223.886C474.45 223.741 475.816 223.671 477.262 223.681C479.586 223.698 482.096 223.923 484.886 224.388C485.984 224.571 486.989 224.685 487.797 224.72C488.345 224.743 488.772 224.736 489.034 224.693C489.078 224.674 489.122 224.658 489.168 224.644C489.827 224.439 490.464 224.204 491.076 223.942C489.846 222.545 487.525 221.641 485.035 221.16C484.184 220.995 483.322 220.881 482.483 220.814C482.408 220.815 482.333 220.809 482.259 220.797C479.743 220.62 477.456 220.866 476.297 221.451C475.625 221.79 474.805 221.52 474.466 220.848C474.127 220.176 474.397 219.357 475.069 219.018C475.836 218.631 476.935 218.349 478.223 218.189C476.36 217.35 474.121 216.798 471.823 216.511C468.617 216.11 465.355 216.227 462.853 216.799C464.601 217.751 466.486 218.857 468.272 220.053C470.074 221.259 471.775 222.558 473.14 223.886ZM360.871 175.197C361.183 175.119 361.505 175.059 361.831 174.997C362.471 174.876 363.132 174.752 363.406 174.517C364.21 173.831 365.093 173.545 365.934 173.482C367.101 173.394 368.154 173.75 368.74 174.009C370.02 174.574 371.107 175.215 372.08 175.789C373.439 176.591 374.53 177.235 375.289 177.145C375.97 177.064 377.05 177.278 378.14 177.608C379.369 177.981 380.697 178.521 381.396 178.915C385.018 180.96 386.428 182.788 387.796 184.561C388.842 185.917 389.86 187.237 392.048 188.575C398.039 192.238 403.087 193.266 408.347 194.336C412.642 195.21 417.072 196.112 422.276 198.415C424.401 199.355 426.217 200.294 428.062 201.466C429.895 202.631 431.753 204.026 433.972 205.884C435.133 206.857 436.608 207.695 438.1 208.325C439.713 209.007 441.323 209.438 442.553 209.525H442.558C444.756 209.679 447.612 210.376 450.681 211.416C453.532 212.381 456.588 213.65 459.479 215.058C462.496 213.691 467.438 213.21 472.154 213.799C476.403 214.33 480.549 215.731 483.087 218.137C483.908 218.21 484.736 218.324 485.548 218.481C487.836 218.922 490.045 219.709 491.715 220.898C491.315 218.758 490.225 217.832 489.175 216.94C487.623 215.622 486.135 214.358 485.934 211.089C485.878 210.174 485.9 209.38 485.92 208.65C485.968 206.929 486.004 205.645 484.474 203.509C483.877 202.676 483.35 201.725 483.007 200.673C482.706 199.748 482.551 198.755 482.619 197.708C482.762 195.507 483.491 194.444 484.216 193.389C484.756 192.602 485.293 191.82 485.332 190.224C485.474 184.302 488.24 182.585 490.655 181.085C491.605 180.495 492.483 179.95 492.875 179.205C494.075 176.919 495.362 174.951 497.699 173.46H362.347C361.852 174.036 361.36 174.615 360.871 175.197ZM526.052 173.46C528.39 174.951 529.677 176.919 530.876 179.205C531.268 179.95 532.146 180.495 533.096 181.085C535.511 182.585 538.277 184.302 538.42 190.224C538.458 191.82 538.995 192.602 539.535 193.389C540.26 194.444 540.989 195.507 541.132 197.708C541.2 198.755 541.045 199.748 540.744 200.673C540.401 201.725 539.874 202.676 539.278 203.509C537.747 205.645 537.783 206.929 537.831 208.65C537.851 209.38 537.873 210.174 537.817 211.089C537.616 214.358 536.128 215.622 534.577 216.94C533.539 217.821 532.462 218.736 532.05 220.824C533.707 219.676 535.872 218.913 538.112 218.481C538.924 218.324 539.752 218.21 540.573 218.137C543.111 215.731 547.257 214.33 551.506 213.799C556.222 213.21 561.164 213.691 564.181 215.058C567.072 213.65 570.129 212.381 572.979 211.416C576.048 210.376 578.904 209.679 581.102 209.525H581.107C582.337 209.438 583.947 209.007 585.561 208.325C587.052 207.695 588.527 206.857 589.688 205.884C591.907 204.026 593.765 202.631 595.599 201.466C597.443 200.294 599.259 199.355 601.384 198.415C606.588 196.112 611.019 195.21 615.313 194.336C620.573 193.266 625.621 192.238 631.612 188.575C633.8 187.237 634.818 185.917 635.864 184.561C637.232 182.788 638.642 180.96 642.264 178.915C642.963 178.521 644.291 177.981 645.521 177.608C646.61 177.278 647.69 177.064 648.371 177.145C649.13 177.235 650.222 176.591 651.58 175.789C652.553 175.215 653.64 174.574 654.92 174.009C655.506 173.75 656.559 173.394 657.726 173.482C658.567 173.545 659.45 173.831 660.254 174.517C660.528 174.752 661.189 174.876 661.829 174.997C662.313 175.089 662.791 175.179 663.236 175.324C662.712 174.7 662.184 174.078 661.653 173.46H526.052ZM538.923 305.345C539.497 305.839 540.022 306.508 540.497 307.265C541.722 309.222 542.706 311.858 543.122 313.06C543.431 313.954 543.701 315.1 543.937 316.394C544.178 317.708 544.382 319.12 544.561 320.548C545.462 327.742 546.382 329.328 548.362 332.741C549.53 334.753 551.045 337.363 553.088 341.892C555.239 346.662 557.225 352.655 558.833 358.528C560.723 365.431 562.09 372.166 562.589 376.547C563.108 379.492 563.945 381.085 564.871 382.847C565.75 384.519 566.701 386.33 567.573 389.385C567.937 390.661 568.246 391.955 568.51 393.209C568.764 394.419 568.974 395.595 569.149 396.678C569.351 397.931 569.431 398.458 569.5 398.908C569.77 400.686 569.907 401.586 570.209 402.352C570.529 403.161 571.09 404 572.225 405.695C572.635 406.307 573.104 407.008 573.433 407.507C574.895 409.721 576.376 411.929 577.721 413.935C579.647 416.808 581.305 419.281 581.861 420.198C584.738 424.941 586.455 430.269 588.281 435.938C590.556 442.999 593.007 450.606 598.081 458.036C599.369 459.923 600.933 461.587 602.929 462.467C604.897 463.336 607.357 463.465 610.509 462.328C613.641 461.197 616.177 461.29 618.184 461.991C620.184 462.69 621.628 463.983 622.611 465.279C632.985 458.243 642.655 450.246 651.489 441.414C660.148 432.756 668.004 423.295 674.94 413.156V238.716C674.452 239.671 673.758 240.551 672.8 241.296C672.324 241.666 668.74 243.513 660.787 244.164C656.54 244.512 650.951 244.547 643.759 243.873C640.255 243.544 636.97 244.143 632.821 244.899C629.078 245.582 624.657 246.388 618.772 246.785C615.698 246.992 612.292 247.035 608.737 247.079C604.097 247.138 599.196 247.199 594.339 247.656C592.025 247.874 589.657 248.152 587.373 248.42C583.341 248.893 579.577 249.334 575.447 249.47C572.124 249.58 568.527 249.287 565.198 248.865C561.897 248.446 558.865 247.902 556.632 247.5C554.031 247.033 552.275 247.426 550.969 248.55C549.55 249.772 548.506 251.899 547.457 254.746C546.573 257.143 545.078 262.543 543.524 268.157C542.79 270.807 542.045 273.5 541.493 275.437C540.657 278.373 539.972 280.172 539.475 281.479L539.473 281.479C538.376 284.365 538.325 284.505 539.912 291.486C540.485 294.005 540.876 296.963 540.537 299.917C540.324 301.767 539.829 303.612 538.923 305.345ZM574.754 227.045L574.768 227.038C575.319 226.735 575.881 226.434 576.444 226.136C579.543 224.501 582.679 223.007 584.439 222.193C589.353 219.923 593.255 218.963 597.733 217.861C601.974 216.818 606.743 215.644 613.389 213.076C616.38 211.92 619.378 210.48 622.62 208.51C625.882 206.529 629.406 204.004 633.436 200.686L633.505 200.629L633.585 200.579C637.828 197.946 640.61 197.631 643.09 197.35C644.265 197.217 645.364 197.092 646.467 196.692C647.438 196.34 648.658 195.713 649.979 194.946C651.346 194.153 652.793 193.226 654.182 192.299C655.84 191.193 657.367 190.123 658.612 189.251C659.547 188.596 658.868 189.064 659.704 188.482C660.031 188.255 660.46 187.72 660.836 187.127C661.216 186.53 661.505 185.949 661.544 185.641C661.773 183.83 662.487 182.756 663.11 181.819C663.74 180.87 664.212 180.16 662.646 178.033C662.553 177.908 661.951 177.794 661.327 177.676C660.335 177.489 659.31 177.296 658.482 176.588C658.185 176.335 657.848 176.228 657.524 176.204C656.932 176.159 656.35 176.361 656.019 176.507C654.879 177.01 653.871 177.605 652.968 178.138C651.166 179.201 649.719 180.055 648.051 179.856C647.76 179.822 647.076 179.981 646.311 180.213C645.249 180.534 644.146 180.977 643.599 181.285C640.47 183.051 639.227 184.663 638.021 186.226C636.819 187.785 635.649 189.302 633.032 190.902C626.641 194.81 621.36 195.885 615.857 197.005C611.717 197.847 607.446 198.716 602.484 200.913C600.489 201.796 598.787 202.675 597.061 203.772C595.324 204.876 593.556 206.203 591.439 207.976C590.073 209.121 588.35 210.102 586.618 210.834C584.73 211.631 582.805 212.139 581.294 212.246C579.334 212.385 576.713 213.031 573.855 213.999C570.764 215.046 567.424 216.462 564.345 218.02C562.12 219.146 559.397 220.647 556.904 222.316C555.883 223 554.9 223.712 554.008 224.436C559.924 225.588 563.789 226.823 567.186 227.909C568.373 228.288 569.501 228.649 570.643 228.98C572.155 228.292 573.541 227.648 574.754 227.045ZM576.085 229.426C576.048 229.448 576.011 229.47 575.972 229.489L575.956 229.497C575.63 229.677 575.308 229.857 574.992 230.036C579.263 230.849 584.665 231.194 593.883 230.679C597.699 230.466 600.453 230.114 603.31 229.75C608.487 229.091 613.998 228.388 626.331 228.362C627.525 228.359 629.229 228.44 631.041 228.525C633.011 228.619 635.113 228.718 636.817 228.718C640.612 228.718 643.682 227.182 646.627 225.708C648.284 224.879 649.904 224.068 651.617 223.509C654.606 222.534 656.117 223.125 657.943 223.839C658.926 224.224 660.026 224.655 661.621 224.769C662.767 224.852 663.842 224.863 664.89 224.873C668.002 224.904 670.903 224.933 673.365 226.476C673.642 226.65 674.376 227.765 674.94 229.271V190.756C672.226 186.789 669.371 182.926 666.383 179.175C666.958 180.955 666.247 182.025 665.384 183.324C664.922 184.019 664.393 184.816 664.245 185.982C664.154 186.702 663.707 187.702 663.143 188.59C662.593 189.454 661.894 190.285 661.263 190.724C659.763 191.767 660.317 191.379 660.171 191.482C658.879 192.387 657.294 193.497 655.698 194.562C654.247 195.531 652.745 196.493 651.346 197.305C649.901 198.144 648.537 198.841 647.396 199.254C645.98 199.768 644.728 199.91 643.389 200.062C641.21 200.308 638.767 200.586 635.093 202.848C630.999 206.215 627.392 208.796 624.03 210.837C620.629 212.903 617.493 214.41 614.371 215.616C607.546 218.254 602.696 219.447 598.384 220.509C594.046 221.576 590.265 222.507 585.582 224.67C583.843 225.473 580.752 226.945 577.714 228.549C577.167 228.838 576.621 229.131 576.085 229.426ZM534.539 224.659C534.769 224.731 535.257 224.748 535.925 224.72C536.733 224.685 537.739 224.571 538.836 224.388C541.626 223.923 544.136 223.698 546.46 223.681C547.885 223.671 549.234 223.739 550.527 223.88C551.891 222.554 553.589 221.257 555.388 220.053C557.174 218.857 559.059 217.751 560.807 216.799C558.305 216.227 555.043 216.11 551.837 216.511C549.539 216.798 547.3 217.35 545.437 218.189C546.725 218.349 547.824 218.631 548.591 219.018C549.263 219.357 549.533 220.176 549.194 220.848C548.855 221.52 548.035 221.79 547.363 221.451C546.204 220.866 543.917 220.62 541.402 220.797C541.327 220.809 541.252 220.815 541.177 220.814C540.338 220.881 539.476 220.995 538.625 221.16C536.135 221.641 533.814 222.545 532.584 223.942C533.196 224.204 533.833 224.439 534.492 224.644C534.508 224.649 534.524 224.654 534.539 224.659ZM665.239 173.46C668.632 177.501 671.869 181.677 674.94 185.98V173.46H665.239ZM479.406 499.267C437.233 492.356 399.498 472.258 370.579 443.346C362.726 435.495 355.525 426.994 349.06 417.931V499.267H479.406ZM349.06 185.98C352.131 181.677 355.368 177.501 358.761 173.46H349.06V185.98ZM364.74 170.727H511.147H512.605H659.26C656.748 167.911 654.157 165.166 651.489 162.498C615.791 126.808 566.474 104.733 512 104.733C457.526 104.733 408.209 126.808 372.511 162.498C369.843 165.166 367.252 167.911 364.74 170.727ZM677.675 194.862C677.679 266.256 677.68 337.65 677.678 409.045C697.661 378.206 709.267 341.436 709.267 301.956C709.267 262.473 697.66 225.702 677.675 194.862ZM346.327 409.051V194.86C326.341 225.7 314.733 262.472 314.733 301.956C314.733 341.439 326.341 378.211 346.327 409.051Z" fill="#4E4E4E"/>
<path d="M483.392 195.757L483.395 195.748L481.518 192.948C481.344 192.69 481.234 192.395 481.195 192.087C481.155 191.779 481.188 191.465 481.291 191.172L482.947 186.454C483.049 186.161 483.219 185.896 483.441 185.68C483.664 185.465 483.934 185.303 484.229 185.21L487.26 184.249" stroke="#4E4E4E" stroke-width="2" stroke-linecap="round" stroke-linejoin="round"/>
<path d="M536.61 185.339L539.664 186.223C539.962 186.309 540.236 186.464 540.464 186.674C540.692 186.884 540.868 187.145 540.978 187.435L542.751 192.11C542.861 192.4 542.902 192.713 542.871 193.022C542.839 193.331 542.736 193.629 542.57 193.891L540.763 196.737L540.767 196.746" stroke="#4E4E4E" stroke-width="2" stroke-linecap="round" stroke-linejoin="round"/>
<path fill-rule="evenodd" clip-rule="evenodd" d="M534.802 189.131C533.968 188.237 532.941 187.5 531.783 186.964C530.624 186.429 529.358 186.105 528.057 186.013C525.356 185.878 522.812 186.82 520.28 187.517C519.113 187.838 517.954 188.187 516.797 188.54C515.308 188.993 513.692 188.993 512.203 188.54C511.046 188.187 509.887 187.838 508.72 187.517C506.188 186.82 503.644 185.878 500.943 186.013C499.642 186.105 498.376 186.429 497.217 186.964C496.059 187.5 495.032 188.237 494.198 189.131C492.735 190.694 491.955 192.676 492.002 194.711C492.002 202.925 498.138 206.576 502.228 205.663C506.319 204.75 509.387 202.013 514.5 202.013C519.613 202.013 522.681 204.75 526.772 205.663C530.862 206.576 536.998 202.925 536.998 194.711C537.045 192.676 536.265 190.694 534.802 189.131Z" fill="white"/>
</svg>
