<svg xmlns="http://www.w3.org/2000/svg" xmlns:xlink="http://www.w3.org/1999/xlink" xml:space="preserve" version="1.1" style="shape-rendering:geometricPrecision;text-rendering:geometricPrecision;image-rendering:optimizeQuality;" viewBox="0 0 50000 62500" x="0px" y="0px" fill-rule="evenodd" clip-rule="evenodd"><defs><style type="text/css">
   
    .fil0 {fill:black;fill-rule:nonzero}
   
  </style></defs><g><path class="fil0" d="M25000 1178.49c6576.64,0 12530.67,2665.72 16840.56,6975.61 390.15,390.15 766.63,793.95 1129.07,1210.3l1758.86 0 0.14 2285.06c2580.19,3806.82 4087.54,8399.96 4087.54,13345.2 0,4945 -1507.25,9537.9 -4087.17,13344.66 -0.11,3494.02 -0.29,6988.05 -0.51,10482.06l-39456.98 0 0 -10481.31c-2580.24,-3806.91 -4087.68,-8400.1 -4087.68,-13345.41 0,-4945.33 1507.4,-9538.55 4087.68,-13345.42l0 -2284.84 162.74 0 1596.12 0c362.44,-416.35 738.92,-820.15 1129.07,-1210.3 4309.89,-4309.89 10263.92,-6975.61 16840.56,-6975.61zm-7206.68 35425.61c39.08,-45.17 107.4,-50.11 152.56,-11.03 45.17,39.08 50.11,107.4 11.03,152.57 -35.9,41.59 -78.66,79.08 -127.07,109.66 -45.75,28.93 -96.82,51.74 -152.2,66.18 -57.8,14.98 -116.82,-19.74 -131.79,-77.55 -14.98,-57.8 19.74,-116.82 77.55,-131.8 32.63,-8.5 63.26,-22.29 91.15,-39.92 29.84,-18.85 56.36,-42.14 78.77,-68.11zm-805.58 1102.41c-58.51,-12.63 -95.7,-70.32 -83.07,-128.84 12.63,-58.51 70.33,-95.7 128.84,-83.07 353.34,76.94 511.25,-87.23 651.61,-233.18 119.44,-124.22 229.25,-238.38 417.15,-249.76 59.68,-3.5 110.92,42.03 114.42,101.72 3.51,59.68 -42.03,110.92 -101.71,114.42 -103.3,6.25 -185,91.21 -273.89,183.64 -179.97,187.14 -382.42,397.63 -853.35,295.07zm2525.27 -2638.3c13.57,58.28 -22.66,116.54 -80.95,130.11 -58.28,13.57 -116.54,-22.66 -130.11,-80.95 -119.15,-508.88 62.38,-725.28 276.13,-980.06 134.28,-160.04 283.3,-337.68 356.56,-632.31 14.28,-58.05 72.92,-93.54 130.96,-79.26 58.04,14.28 93.53,72.92 79.25,130.96 -85.52,344.01 -251.29,541.59 -400.64,719.61 -176.13,209.94 -325.71,388.24 -231.2,791.9zm3855.96 -22890.03c26.68,-85.67 117.76,-133.48 203.43,-106.8 85.66,26.68 133.48,117.76 106.8,203.43 -110.03,351.15 -112.48,742.11 -50,1094.85 71.34,402.71 224.36,747.81 395.63,919.08 219.34,219.34 585.81,329.03 955.98,329.03 370.17,0 736.64,-109.69 955.98,-329.03 167.12,-167.12 307.07,-485.01 378.13,-869.41 65.91,-356.47 70.62,-764.63 -18.32,-1159.73 -19.66,-87.42 35.28,-174.23 122.69,-193.89 87.42,-19.66 174.23,35.28 193.89,122.69 99.09,440.12 94.01,893.82 20.86,1289.41 -74.02,400.42 -219.56,746.59 -399.95,966.6 74.55,256.27 256.99,553.4 533.98,812.73 83.2,77.9 174.82,152.18 274.51,220.69 18.97,-502.65 232.17,-683.9 436.09,-857.12 130.7,-111.02 256.09,-217.54 271.48,-468.05 6.15,-100.14 3.8,-184.75 1.63,-262.47 -7.49,-268.34 -13.07,-468.6 232,-810.7 53.99,-75.36 100.99,-159.34 130.14,-248.82 23.9,-73.33 36.25,-151.29 30.99,-232.3 -11.21,-172.42 -72.94,-262.36 -134.25,-351.69 -91.24,-132.91 -181.87,-264.96 -188.79,-552.4 -12.75,-529.26 -262.94,-684.63 -481.37,-820.27 -151.4,-94.01 -291.33,-180.91 -380.02,-349.88 -129.94,-247.57 -267.51,-456.04 -525.59,-598.14 -271.39,-149.43 -683.08,-236.11 -1362.9,-236.11l-173.59 0c-679.83,0 -1091.52,86.68 -1362.91,236.11 -258.08,142.1 -395.65,350.57 -525.59,598.14 -88.69,168.97 -228.62,255.87 -380.02,349.88 -218.43,135.64 -468.62,291.01 -481.36,820.27 -6.93,287.44 -97.56,419.49 -188.79,552.4 -61.31,89.33 -123.05,179.27 -134.25,351.69 -5.27,81.01 7.08,158.97 30.98,232.3 29.15,89.48 76.15,173.46 130.14,248.82 245.08,342.1 239.49,542.36 232,810.7 -2.17,77.72 -4.52,162.33 1.63,262.47 15.4,250.51 140.78,357.03 271.48,468.05 202.93,172.39 415.07,352.68 435.82,849.81 95.59,-66.49 183.68,-138.24 263.94,-213.38 277.7,-259.99 460.38,-557.99 534.55,-814.72 -185.75,-228.09 -343.41,-600.1 -417.22,-1016.82 -70.5,-398.03 -66.64,-842.72 60.17,-1247.42zm2602.34 2497.85c-274.49,178.14 -633.66,267.22 -990.5,267.22 -357.57,0 -717.48,-89.44 -992.17,-268.29 -107.1,270.3 -302.47,562.6 -575.96,818.66 -263.68,246.86 -600.89,461.66 -1002.47,592.16 -7.15,3.65 -14.67,6.82 -22.51,9.45 -64.87,21.87 -163.78,29.4 -283.11,24.28l-0.64 0c-110.95,-4.77 -244.26,-19.72 -386.15,-43.36 -317.53,-52.9 -599.12,-78.46 -855.66,-80.35 -255.86,-1.87 -489.08,19.44 -710.18,60.35 -760.26,140.65 -1239.95,294.02 -1658.72,427.92l-66.75 21.33c1254.37,565.45 2896.25,1338.48 3332.2,2328.56 129.08,293.2 342.97,476.15 596.08,584.26 265.77,113.52 576.94,148.22 883.23,141.52 314.55,-6.86 620.46,-52.99 834.83,-160.23 148.72,-74.41 249.16,-179.36 263.83,-323.04 9.12,-89.17 88.82,-154.07 177.99,-144.95 89.17,9.13 154.08,88.82 144.95,178 -27.57,269.84 -195.33,456.54 -441.82,579.86 -261.63,130.89 -616.09,186.75 -973.42,194.56 -347.37,7.6 -704.15,-33.41 -1016.72,-166.92 -325.19,-138.91 -600.14,-374.36 -766.46,-752.1 -406.03,-922.12 -2114.05,-1690.02 -3337.15,-2239.89 -57.96,-26.06 -114.86,-51.63 -170.52,-76.73 -613.02,167.76 -1297.95,262.44 -2755.05,180.97 -459.76,-25.7 -796.34,-68.62 -1145.57,-113.14 -607,-77.37 -1253.1,-159.75 -2700.56,-162.84 -127.6,-0.26 -330.18,9.3 -545.67,19.49 -247.64,11.71 -511.97,24.21 -703.02,24.21 -525.73,0 -927.58,-201.14 -1313.22,-394.16 -184.01,-92.09 -364.04,-182.22 -549.63,-242.75 -245.61,-80.13 -376.51,-28.92 -534.61,32.96 -138.95,54.36 -294.26,115.14 -533.37,132.37 -133.24,9.6 -273.18,11 -409.6,12.35 -323.24,3.22 -624.6,6.23 -840.2,141.37 -2.49,1.55 -33.94,92.53 -79.88,243.77 -32.26,106.23 -59.36,231.65 -66.68,361.43 -7.21,128.06 4.99,259 51.47,376.04 37.12,93.46 97.73,180.36 190.4,252.43 43.28,33.66 392.96,203.55 1256.33,274.26 493.11,40.39 1141.1,44.53 1972.98,-33.43 460.65,-43.16 870.87,31.62 1389.09,126.1 434.97,79.3 948.83,172.99 1637.32,219.45 370.16,24.97 765.02,29.94 1177.21,35.11 559.32,7.01 1150.02,14.44 1739.97,69.98 313.98,29.56 580.27,60.81 837.09,90.94 477.74,56.04 923.9,108.39 1393.42,123.85 377.06,12.41 788.06,-21.22 1169.67,-69.59 384.96,-48.8 741.08,-112.75 1003.53,-159.95 417.32,-75.05 711.22,-1.64 943.89,198.79 219.26,188.91 368.31,484.29 510.99,871.42 107.56,291.88 288.18,944.37 475.97,1622.77 74.74,270.04 150.84,544.91 241.85,864.56 95.84,336.66 174.34,543.02 231.37,692.99l0 0.64c163.76,430.62 171.51,451.03 -39.34,1378.2 -61.48,270.34 -103.63,585.81 -68.01,896.03 34.32,298.96 142.12,594.5 378.42,839.35 62.14,64.59 60.15,167.35 -4.45,229.48 -64.59,62.14 -167.35,60.15 -229.48,-4.45 -18.8,-19.48 -36.96,-39.22 -54.46,-59.16 -14.27,96.94 -26.99,202.89 -40.33,314.2 -34.08,284.15 -72.06,600.7 -151.44,910.09 -213.75,1072.18 -299.84,2141.93 -311.97,3117.55 -16.56,1331.08 104.76,2487.38 227.18,3235.46 259.57,-315.09 533.74,-595.74 826.49,-895.39 269.72,-276.08 555.44,-568.55 855.57,-914.44 139.99,-161.34 274.72,-339.81 401.3,-526.91 137.29,-202.95 262.23,-411.52 371.81,-616.04 5.71,-10.66 57.07,-115.79 112.75,-229.78 56.34,-115.32 117.59,-240.73 153.6,-309.48 3.3,-6.32 6.95,-12.32 10.93,-18 16,-29.86 32.96,-59.18 50.84,-87.83 47.39,-76.18 147.58,-99.52 223.77,-52.13 76.18,47.39 99.52,147.58 52.13,223.77 -125.6,201.25 -193.92,438.19 -175.47,640.11 6.71,73.41 25.17,141.28 56.94,199.34 29.36,53.66 71.52,99.91 127.96,135.12 98.89,61.72 242.65,91.54 439.89,73.51 240.7,-22 387.59,-83.42 462.07,-195.93 81.01,-122.37 97.02,-319.5 69.58,-601.63 -32.85,-337.72 -28.02,-661.85 58,-978.2 87.2,-320.75 256.24,-630.01 550.91,-931.87 62.49,-64.25 165.24,-65.68 229.49,-3.18 64.25,62.49 65.67,165.24 3.18,229.49 -252.08,258.24 -396.03,520.42 -469.54,790.75 -74.7,274.73 -78.37,561.42 -49.1,862.5 4.34,44.61 7.68,87.77 9.95,129.51 1.47,7.9 2.37,16 2.67,24.27 24.91,649.51 363.39,1530.82 810.77,2415.88 294.3,582.25 635.13,1164.04 965.53,1683.08 24.52,-119.06 41.54,-229.49 48.39,-329.92 40.06,-587.43 51.64,-1174.5 62,-1701.16 7.66,-389.47 14.7,-746.62 31.08,-1038.24 22.83,-406.55 55.42,-812.77 99.04,-1231.68 43.95,-422.21 98.45,-852.98 164.79,-1305.5 65.53,-446.98 112.92,-974.41 93.64,-1507.1 -18.93,-522.93 -101.66,-1052.1 -294.04,-1515.94 -12.06,-16.33 -23.78,-31.07 -35.05,-43.82 -29.97,36.97 -61.99,73.24 -96.22,108.7 -62.13,64.6 -164.89,66.59 -229.48,4.45 -64.6,-62.13 -66.59,-164.89 -4.45,-229.48 236.3,-244.85 344.1,-540.39 378.42,-839.35 35.62,-310.22 -6.53,-625.69 -68.01,-896.03 -210.85,-927.17 -203.1,-947.58 -39.34,-1378.2l0 -0.64c57.03,-149.97 135.53,-356.33 231.37,-692.99 91.01,-319.65 167.1,-594.52 241.85,-864.56 187.79,-678.4 368.41,-1330.89 475.97,-1622.77 142.68,-387.13 291.73,-682.51 510.99,-871.42 232.67,-200.43 526.57,-273.84 943.89,-198.79 262.45,47.2 618.57,111.15 1003.53,159.95 381.61,48.37 792.61,82 1169.67,69.59 469.52,-15.46 915.68,-67.81 1393.42,-123.85 256.82,-30.13 523.11,-61.38 837.09,-90.94 589.95,-55.54 1180.65,-62.97 1739.97,-69.98 412.19,-5.17 807.05,-10.14 1177.21,-35.11 688.49,-46.46 1202.35,-140.15 1637.32,-219.45 518.22,-94.48 928.44,-169.26 1389.09,-126.1 831.88,77.96 1479.87,73.82 1972.98,33.43 863.37,-70.71 1213.05,-240.6 1256.33,-274.26 92.66,-72.07 153.28,-158.97 190.4,-252.43 46.47,-117.04 58.68,-247.98 51.47,-376.04 -7.32,-129.78 -34.42,-255.2 -66.68,-361.43 -45.94,-151.24 -77.39,-242.22 -79.88,-243.77 -215.6,-135.14 -516.96,-138.15 -840.21,-141.37 -136.42,-1.35 -276.35,-2.75 -409.59,-12.35 -239.11,-17.23 -394.42,-78.01 -533.37,-132.37 -158.1,-61.88 -289,-113.09 -534.61,-32.96 -185.59,60.53 -365.62,150.66 -549.63,242.75 -385.64,193.02 -787.49,394.16 -1313.22,394.16 -191.05,0 -455.38,-12.5 -703.03,-24.21 -215.49,-10.19 -418.06,-19.75 -545.66,-19.49 -1447.46,3.09 -2093.56,85.47 -2700.56,162.84 -349.23,44.52 -685.81,87.44 -1145.57,113.14 -1434.46,80.2 -2120.56,-10.32 -2726.42,-173.2 -6.49,-1.33 -12.88,-3.06 -19.16,-5.17l-12.87 -3.52c-53.33,24.14 -107.82,48.74 -163.29,73.78 -1221.94,551.57 -2932.93,1323.9 -3348.99,2245.02 -169.29,374.8 -434.01,607.86 -746.02,745.95 -300.67,133.08 -642.65,174.41 -982.05,169.25 -402.58,-6.11 -715.88,-61.76 -953.67,-179.38 -256.35,-126.8 -423.42,-320.14 -515.6,-593.41 -28.44,-84.96 17.39,-176.9 102.35,-205.33 84.96,-28.44 176.9,17.39 205.33,102.35 63.03,186.82 176.95,318.85 351.59,405.24 193.19,95.56 461,140.97 813.82,146.33 297.24,4.52 593.53,-30.25 847.28,-142.56 242.44,-107.3 448.45,-289.05 580.74,-581.93 445.51,-986.33 2084.38,-1761.76 3335.83,-2328.28l-63.66 -20.34c-418.76,-133.9 -898.45,-287.27 -1658.71,-427.92 -60.26,-11.16 -121.43,-20.83 -183.7,-29 -3.28,-0.33 -6.53,-0.75 -9.79,-1.27 -163.26,-20.94 -334.21,-31.42 -516.69,-30.08 -256.54,1.89 -538.13,27.45 -855.66,80.35 -141.9,23.64 -275.2,38.59 -386.15,43.36l-0.64 0c-116.61,5 -213.71,-2.08 -278.61,-22.81l-0.69 -0.2c-416.45,-129.26 -765.14,-349.14 -1036.17,-602.88 -273.13,-255.72 -468.34,-547.58 -575.54,-817.59zm-114.04 1852.63c34.63,48.68 23.25,116.24 -25.43,150.87 -48.68,34.63 -116.24,23.25 -150.87,-25.43 -142.09,-199.28 -224.8,-421.15 -243.47,-657.35 -18.15,-229.51 24.42,-471.71 131.98,-718.82 23.87,-54.77 87.63,-79.82 142.4,-55.95 54.77,23.87 79.82,87.63 55.95,142.4 -92.77,213.12 -129.62,420.43 -114.19,615.42 15.56,196.85 84.74,382.1 203.63,548.86zm-1626.86 125.44c-34.63,48.68 -102.19,60.06 -150.87,25.43 -48.68,-34.63 -60.06,-102.19 -25.43,-150.87 118.9,-166.76 188.07,-352.01 203.63,-548.86 15.43,-194.99 -21.42,-402.3 -114.19,-615.42 -23.87,-54.77 1.18,-118.53 55.95,-142.4 54.77,-23.87 118.53,1.18 142.4,55.95 107.56,247.11 150.13,489.31 131.98,718.82 -18.67,236.2 -101.37,458.07 -243.47,657.35zm842.18 7950.73c59.22,-8.42 114.06,32.75 122.48,91.97 8.42,59.21 -32.75,114.06 -91.97,122.48 -52.17,7.47 -95.71,25.89 -128.86,51.53 -27.39,21.2 -47.76,47.3 -59.83,75.87 -11.69,27.66 -15.83,58.51 -11.29,90.25 4.87,34.03 19.94,69.46 46.52,103.82 18.96,24.51 43.73,43.98 71.54,56.91 29.76,13.84 62.41,20.18 94.55,17.26 31.94,-2.9 64.45,-15.08 94.38,-38.23 31.11,-24.08 59.84,-60.38 83.33,-110.88 25.04,-54.3 89.38,-78.02 143.68,-52.98 54.3,25.04 78.02,89.38 52.98,143.68 -39.02,83.88 -90.21,146.87 -147.76,191.4 -64.1,49.58 -135.54,75.8 -207.12,82.3 -71.38,6.49 -141.98,-6.7 -204.74,-35.9 -58.82,-27.35 -111.45,-68.82 -152.07,-121.32 -50.65,-65.48 -79.74,-135.77 -89.74,-205.56 -10.15,-70.88 -0.42,-140.85 26.55,-204.66 26.58,-62.89 69.72,-119.02 126.79,-163.18 61.86,-47.86 139.97,-81.79 230.58,-94.76zm-1478.06 2076.38c59.68,-2.1 109.78,44.57 111.89,104.25 2.1,59.69 -44.57,109.79 -104.25,111.89 -493.17,18.58 -534.77,-462.21 -576.22,-941.61 -31.23,-361.16 -62.4,-721.36 -308.48,-736.57 -59.69,-3.5 -105.22,-54.74 -101.72,-114.43 3.51,-59.68 54.75,-105.21 114.43,-101.71 433.43,26.79 472.63,479.82 511.91,934.07 32.59,376.92 65.3,754.93 352.44,744.11zm2673.31 452.32c-59.45,6.78 -113.16,-35.91 -119.94,-95.35 -6.79,-59.45 35.91,-113.16 95.35,-119.94 364.31,-41.53 405.03,-404.73 445.42,-765.23 43.6,-389.19 86.96,-775.89 466.48,-904.5 56.63,-19.18 118.13,11.17 137.31,67.81 19.18,56.63 -11.17,118.13 -67.81,137.31 -249.11,84.42 -284.79,402.74 -320.68,723.12 -50,446.19 -100.38,895.7 -636.13,956.78zm-392.34 3858.49c-136.98,144.21 -341.29,223.59 -632.62,250.21 -78.47,7.17 -151.75,8.31 -220.05,4.03 8.96,206.68 11.24,406.35 5.8,602.65 6.7,207.74 14.6,600.38 21.59,1006.52 10.42,606.26 18.84,1215.63 18.84,1318.52 0,392.57 4.98,719.32 9.92,1043.92 15.39,1010 30.52,2002.16 -86.22,3047.26 -58.16,520.76 -152.01,1061.19 -231.59,1519.42 -78.35,451.24 -142.68,821.54 -143.11,991.72 -0.55,214.6 7.45,439.11 27.52,664.03 17.76,199.05 45.05,398.76 84.3,592.55 51.97,256.58 124.99,502.28 224.82,721.27 30.45,66.77 63.39,131.02 99,192.25l1.91 0.28 -0.34 2.42c66.13,113.31 141.44,216.29 226.98,305.94 61.78,64.94 59.22,167.71 -5.72,229.49 -64.95,61.79 -167.71,59.23 -229.5,-5.71 -15.28,-16.03 -30.28,-32.39 -45,-49.07 -24.24,321.44 -22.68,631.97 12.51,937.45 52.06,452 178.35,895.11 404.53,1349.37 164.85,331.08 247.41,741.41 263.45,1136.17 16.35,401.87 -36.84,792.36 -142.67,1070.31 12,25.93 22.17,52.05 30.52,78.21 39.47,123.59 38.92,247.31 3.83,360.38 -12.72,41.02 -29.91,80.5 -51.28,117.91 1416.26,-30.94 2801.61,-187.33 4145.44,-458.3 -860,-198.04 -1915.8,-485.59 -2447.36,-1471.3 -464.92,-862.1 -422.32,-1984.58 -378.95,-3127.52 28.47,-750.07 57.28,-1509.25 -61.42,-2192.02 -55.57,-320.15 -91.08,-578.64 -110.41,-794.34 -19.6,-218.63 -21.87,-387.99 -10.97,-528.34 22.72,-292.56 97.18,-461.76 191.36,-675.86 92.24,-209.65 205.51,-467.07 301.96,-955.53 52.55,-266.22 52.7,-541.43 52.83,-815.6 0.15,-290.44 0.3,-579.88 56.71,-865.73 95.96,-486.2 232.83,-948.66 356.79,-1367.48 46.53,-157.23 91.18,-308.14 130.93,-451.2 -385.93,-589.02 -799.15,-1278.85 -1148.09,-1969.21 -316.68,-626.48 -581.02,-1255.54 -726.24,-1815.07zm-1181.29 178.41c-32.62,-14.48 -63.31,-30.77 -92.11,-48.75 -105.61,-65.91 -185.09,-153.53 -241.12,-255.92 -21.13,-38.63 -38.73,-79.2 -52.93,-121.32 -79.08,135.42 -162.72,269.01 -250.02,398.07 -131.84,194.87 -274.5,383.44 -425.46,557.42 -307.73,354.65 -596.09,649.82 -868.29,928.44 -328.95,336.69 -634.07,649.03 -912.49,1004.07 -23.09,29.44 -46.05,59.23 -68.91,89.35 67.08,333.11 120.85,585.76 166.77,801.56 139.8,657.16 211.08,992.22 209.3,1402.32 -0.91,211.52 -21.44,436.54 -62.15,729.59 -40.47,291.24 -100.25,647.33 -180.43,1124.31 -56.46,335.93 -107.52,640.06 -146.5,888.39 -41.6,265.04 -78.75,522.35 -111.6,791.43 -295.87,2422.62 339.07,3903.52 853.19,5102.63 265.09,618.31 499.16,1164.22 568.79,1735.47 37.94,311.29 -61.73,690.09 -158.42,1057.56 -47.09,178.91 -93.43,355 -120.51,513.95l-0.11 -0.02c-46.7,274.69 -31.26,488.48 178.14,530.55 660.57,56.33 1328.94,85.34 2003.99,85.8 74.9,-14.98 137.45,-44.1 185.55,-83 46.58,-37.67 79.15,-84.68 95.09,-136.09 16.02,-51.64 16.01,-108.97 -2.55,-167.1 -29.57,-92.58 -105.43,-188.68 -236.91,-273.77 -105.47,-68.25 -205.01,-141.31 -279.11,-210.48 -80.28,-74.93 -137.15,-152.64 -155.1,-228.74 -40.25,-170.55 -34.08,-316.41 -28.44,-449.93 6.92,-163.9 12.78,-302.48 -119.79,-418.12 -119.08,-103.87 -244.31,-295.86 -346.03,-501.15 -108.71,-219.44 -194.57,-461.35 -218.75,-628.95 -109.31,-757.65 -93.71,-1428.69 -77.76,-2114.04 18.11,-778.7 36.67,-1576.38 -134.47,-2541.45 -130.39,-735.29 -50.62,-1269.57 85.44,-1846.81 -139.97,100.17 -285.94,155.22 -339.38,154.02 -59.68,-1.16 -107.11,-50.5 -105.95,-110.18 1.16,-59.68 50.5,-107.12 110.18,-105.96 35.23,0.78 169.33,-65.9 292.89,-182.48 77.11,-72.75 143.59,-163.81 166.14,-267.39 2.15,-9.98 5.62,-19.32 10.18,-27.92 93.51,-374.85 190.5,-792.06 255.14,-1300.19 52.39,-411.83 49.73,-849.81 47.05,-1291.32 -4.23,-699.44 -8.52,-1407.54 198.89,-2070.99 140.14,-448.23 228.77,-856.76 276.5,-1262.54 47.85,-406.85 55,-811.32 32.06,-1250.32zm5723.25 5528.9c-39.08,-45.16 -34.15,-113.48 11.02,-152.56 45.17,-39.08 113.48,-34.15 152.56,11.02 22.42,25.97 48.93,49.27 78.77,68.11 27.89,17.63 58.52,31.42 91.16,39.93 57.8,14.97 92.52,73.99 77.55,131.8 -14.97,57.8 -73.99,92.52 -131.8,77.55 -55.38,-14.44 -106.44,-37.26 -152.2,-66.18 -48.41,-30.59 -91.16,-68.07 -127.06,-109.67zm923.4 748.97c58.51,-12.63 116.2,24.56 128.83,83.07 12.63,58.51 -24.56,116.21 -83.07,128.84 -470.93,102.55 -673.38,-107.93 -853.35,-295.07 -88.88,-92.43 -170.59,-177.39 -273.89,-183.64 -59.68,-3.51 -105.22,-54.75 -101.71,-114.43 3.5,-59.68 54.74,-105.22 114.43,-101.71 187.9,11.38 297.7,125.54 417.14,249.75 140.36,145.96 298.28,310.13 651.62,233.19zm-1628.97 -2517.58c55.94,20.83 84.4,83.08 63.57,139.02 -20.83,55.93 -83.08,84.39 -139.02,63.56 -374.2,-140.36 -482.01,-428.73 -603.54,-753.81 -77.18,-206.47 -160.65,-429.73 -331.32,-625.92 -39.32,-45.17 -34.58,-113.68 10.58,-153 45.17,-39.32 113.68,-34.58 153,10.59 195.16,224.33 286.17,467.76 370.32,692.88 103.22,276.12 194.78,521.05 476.41,626.68zm-3390.08 2551.42c-2.33,59.68 -52.63,106.16 -112.31,103.82 -59.68,-2.33 -106.16,-52.63 -103.83,-112.31 9.96,-232.77 -50.86,-391.12 -111.08,-547.82 -98.93,-257.51 -196.41,-511.25 -49.38,-1027.24 16.37,-57.56 76.34,-90.96 133.91,-74.59 57.57,16.38 90.96,76.35 74.59,133.92 -127.59,447.75 -43.11,667.63 42.62,890.77 68.29,177.76 137.3,357.36 125.48,633.45zm-3333.49 674.02c57.34,16.61 90.36,76.58 73.74,133.92 -16.61,57.34 -76.57,90.35 -133.91,73.74 -186.85,-54.21 -328.19,-187.88 -424.63,-361.85 -102.8,-185.46 -154.43,-418.48 -154.74,-646.49 0,-59.68 48.39,-108.07 108.07,-108.07 59.69,0 108.08,48.39 108.08,108.07 0.24,193.13 42.84,388.44 127.61,541.38 70.09,126.46 168.98,222.51 295.78,259.3zm-715.18 449.69c-59.44,-6.32 -102.51,-59.65 -96.2,-119.1 6.32,-59.44 59.65,-102.51 119.09,-96.2 322.2,34.53 381.87,268.71 437.19,486.61 32.27,126.66 62.21,244.54 168.53,244.54 59.91,0 108.5,48.59 108.5,108.5 0,59.91 -48.59,108.49 -108.5,108.49 -275.02,0 -324.97,-196.73 -378.65,-408.15l0 -0.43c-37.41,-147.35 -77.64,-305.81 -249.96,-324.26zm4013.3 724.72c59.68,-1.4 109.21,45.85 110.61,105.54 1.4,59.68 -45.85,109.21 -105.53,110.61 -15.71,0.39 -31.3,-0.22 -46.6,-1.77 -127.22,-12.87 -272.78,-91.72 -385.24,-212.43 -111.1,-119.26 -193.5,-281.69 -197.98,-464.13 -0.64,-26.4 0.28,-52.79 2.94,-79.04 5.85,-59.44 58.81,-102.89 118.25,-97.04 59.44,5.84 102.9,58.8 97.05,118.24 -1.85,18.23 -2.51,35.83 -2.1,52.76 3.04,124.04 61.49,237.06 140.35,321.72 77.5,83.19 171.06,136.84 247.93,144.62 7.47,0.76 14.28,1.06 20.32,0.92zm2384.57 -11385.92c-17.28,298.04 -49.16,582.31 -86.91,839.85 -66.74,455.3 -120.83,881.56 -163.51,1291.51 -43.03,413.26 -75.2,814.46 -97.78,1216.42 -16.72,297.78 -23.6,646.53 -31.08,1026.81 -10.57,536.79 -22.36,1135.17 -62,1716.41 -13.82,202.55 -62,431.86 -128.21,683.98 325.92,490.26 626.58,900.1 842.65,1164.48 200.83,245.74 366.55,485.42 508,723.83 141.21,238.01 257.13,472.89 358.97,710.07l0 0.64 0.73 1.69 0.23 -0.1c134.61,313.48 268.6,625.49 360.14,978.28 259.96,1001.94 698.74,2011.48 1210.26,2920.62 580,1030.87 1251.61,1929.14 1860.78,2538.53 319.57,319.67 474.64,881.42 624.29,1423.52 63.3,229.36 125.6,455 200.41,656.68 145.89,393.31 335.2,658.51 682.3,534.45 1098.39,-501.75 2151.44,-1085.54 3151.16,-1743.78 -84.26,-106.64 -203.53,-210.07 -363.79,-266.07 -175.7,-61.39 -404.53,-67.09 -697.81,38.82 -464.24,167.62 -837.04,143.94 -1142.9,8.97 -302.5,-133.5 -530.94,-373.09 -714.63,-642.19 -630.05,-922.9 -929.58,-1852.74 -1207.66,-2716.04 -211.72,-657.33 -410.73,-1275.09 -732.67,-1806.05 -57.64,-95.08 -255.57,-390.33 -485.45,-733.21 -173.42,-258.68 -364.45,-543.64 -511.81,-766.89 -69.88,-105.85 -108.83,-164.06 -142.65,-214.62 -149.7,-223.75 -223.72,-334.4 -273.03,-459.22 -49.44,-125.14 -67.64,-244.78 -103.59,-481.35 -14.5,-95.45 -31.37,-206.36 -40.5,-263.04 -19.56,-121.26 -43.55,-255.31 -73.57,-397.97 -28.93,-137.51 -63.87,-283.07 -106.49,-432.52 -95.11,-333.51 -199.72,-532.64 -296.26,-716.42 -123.34,-234.79 -234.75,-446.87 -305.17,-847.47l-1.27 -10.16c-57.13,-509 -216.76,-1296.96 -438.01,-2105.1 -186.71,-681.94 -417.46,-1378.31 -667.67,-1933.14 -237.27,-526.15 -412.4,-828.01 -547.42,-1060.77 -176.15,-303.64 -288.15,-496.77 -378.08,-879.45zm-684.79 7185.13c-18.18,62.04 -36.86,125.14 -55.84,189.26 -121.29,409.85 -255.22,862.36 -349.14,1338.24 -51.35,260.21 -51.5,531.36 -51.63,803.43 -0.15,292.47 -0.3,586.05 -57.92,877.9 -103.45,523.9 -224.76,799.64 -323.57,1024.19 -81.71,185.73 -146.3,332.52 -164.67,569.05 -9.86,127.17 -7.88,279.9 9.71,476.22 17.86,199.24 52.51,448.64 107.87,767.63 123.88,712.55 94.37,1490 65.22,2258.14 -41.67,1098.34 -82.62,2177.05 340.82,2962.23 492.54,913.36 1560.32,1156 2380.76,1342.43 183.73,41.73 355.72,80.83 508.44,123.88 1308.74,-307.63 2575.28,-724.7 3789.43,-1241.05 -183.06,-135.6 -314.15,-377.21 -422.87,-670.3 -75.76,-204.25 -141.37,-441.86 -208.03,-683.39 -138.46,-501.57 -281.94,-1021.34 -541.63,-1281.12 -628.97,-629.18 -1320.03,-1552.44 -1914.19,-2608.45 -523.27,-930.05 -972.96,-1965.94 -1240.79,-2998.18 -83.97,-323.68 -214.13,-626.74 -344.89,-931.24l0 -0.64 -0.72 -1.69 -0.23 0.1c-97.27,-226.53 -207.16,-449.47 -339.9,-673.2 -132.5,-223.34 -288.98,-449.38 -480.03,-683.15 -186.02,-227.62 -433.59,-561.05 -706.2,-960.29zm-2692.43 12489.99c52.04,-215.37 75.69,-480.09 64.53,-754.34 -14.3,-351.95 -86.54,-715.02 -230.41,-1003.94 -243.73,-489.52 -379.96,-968.22 -436.31,-1457.45 -52.01,-451.41 -35.51,-910.03 27.37,-1393.46 -20.64,-39.73 -40.38,-80.32 -59.24,-121.69 -110.54,-242.49 -190.94,-512.22 -247.69,-792.47 -41.65,-205.65 -70.59,-417.33 -89.4,-628.15 -20.99,-235.16 -29.35,-469.03 -28.78,-692 0.53,-203.48 66.52,-583.42 146.91,-1046.4 79.05,-455.2 172.29,-992.06 229.05,-1500.34 115.1,-1030.47 100.16,-2010.34 84.96,-3007.84 -5.58,-366.47 -11.2,-735.09 -11.2,-1047.74 0,-70.87 -2.17,-273.87 -5.64,-532.49 -13.5,45.77 -27.51,91.92 -42.06,138.46 -193.13,617.74 -188.98,1299.58 -184.92,1973.08 2.74,452.06 5.46,900.51 -49.59,1333.29 -77.67,610.59 -196.43,1081.1 -303.29,1504.59 -175.89,696.99 -318.58,1262.44 -172.6,2085.69 175.77,991.22 156.79,1807.19 138.26,2603.75 -15.59,670.34 -30.86,1326.66 75.22,2061.92 19.48,135.11 93.46,339.69 188.25,531.04 84.97,171.52 183.24,326.37 268.47,400.71 249.72,217.82 240.86,427.23 230.39,674.94 -4.72,111.57 -9.87,233.44 20.82,363.49 1.91,8.11 24.44,31.77 59.74,64.72 60.34,56.33 144.32,117.7 234.63,176.15 33.03,21.37 63.84,43.58 92.53,66.48zm-2814.56 731.75c-41.69,-149.37 -32.92,-333.36 1.69,-536.56l0 -0.64c28.92,-169.77 77.51,-354.36 126.86,-541.92 88.74,-337.26 180.22,-684.91 149.53,-936.76 -64.07,-525.62 -289.42,-1051.19 -544.64,-1646.49 -529.61,-1235.24 -1183.68,-2760.77 -877.35,-5269.17 30.41,-249.08 68.94,-513.62 114.15,-801.6 47.82,-304.67 94.84,-584.9 146.5,-892.21 80.1,-476.55 139.81,-832.23 179.16,-1115.41 39.11,-281.36 58.79,-493.54 59.62,-686.37 1.62,-372.11 -67.46,-696.82 -202.95,-1333.67 -32.75,-153.95 -69.18,-325.14 -107.6,-510.22 -138.86,201 -276.58,411.9 -417.81,628.17 -263.76,403.92 -539.61,826.37 -861.78,1244.81 -219.56,285.2 -437.39,520.24 -645.04,744.32 -435.63,470.08 -824.84,890.07 -1050.07,1601.67 -292.92,925.49 -983.09,1890.57 -1648.18,2820.59 -318.69,445.64 -631.54,883.09 -891.98,1306.21 -155.2,252.14 -306.28,741.05 -424.69,1265.14 -139.74,618.49 -231.89,1279.77 -231.89,1662.54 0,111.23 -32.21,456.16 -155.28,713.7 -38.47,80.5 -86.17,154.07 -145.09,213.21 2297.25,1075.5 4797.18,1790.03 7426.84,2070.66zm-1043.25 -14706.96c-139.06,-730.75 -301.45,-2042.26 -282.24,-3586.4 8.42,-677.94 51.94,-1400.64 147.88,-2138.49 -636.32,774.35 -1043.88,1501.43 -1303.08,2084.72 -264.75,595.76 -374.81,1042.13 -415.58,1232.77 -39.2,183.28 -68.25,323.81 -98.74,471.38 -180.87,875.26 -405.17,1960.62 -689.69,2596.13l-4.27 9.43c-28.24,65.09 -47.54,108.44 -66.52,151.07 -149.43,335.56 -284.44,638.81 -278.71,1045.41 1.05,89.52 -70.67,162.95 -160.19,164.01 -89.52,1.05 -162.96,-70.68 -164.01,-160.19 -0.86,-60.55 0.8,-118.79 4.66,-175.1 -241.15,282.69 -524.72,565.68 -858.46,898.78 -138.26,137.99 -285.34,284.8 -442.23,444.45 -191.32,194.68 -382.52,397.6 -550.75,600.44 -163.91,197.64 -302.94,391.43 -392.97,570.57 -531.43,1057.3 -993.4,2996.46 -1309.37,4322.77 -129.08,541.83 -234.08,982.51 -311.67,1227.51 -78.5,247.8 -166.14,468.99 -264.35,641.92 -105.82,186.36 -227.66,320.11 -368.58,378.81 -100.08,60.62 -218.22,80.36 -349.3,102.24 -225.88,37.71 -504.2,84.27 -641.54,445.07 645.68,400.45 1312.3,770.3 1997.66,1107.9 32.66,13.01 61.48,18.93 86.87,18.93 34.43,0 64.27,-13.55 90.01,-35.88 36.33,-31.53 67.61,-79.3 94.24,-135.01 96.88,-202.73 122.22,-482.85 122.22,-573.85 0,-401.91 95.68,-1091.5 240.79,-1733.73 125.65,-556.1 289.89,-1081.27 464.12,-1364.33 260.63,-423.43 579.67,-869.55 904.67,-1324 649.96,-908.86 1324.42,-1851.98 1602.42,-2730.32 246.91,-780.1 660.1,-1225.96 1122.54,-1724.99 203.44,-219.52 416.82,-449.78 625.98,-721.45 314.63,-408.67 586.55,-825.06 846.52,-1223.2 202.24,-309.69 397.39,-608.53 601.67,-887.37zm42.01 -6794.85c19.55,-97.01 40.13,-194.04 61.79,-291.03 34.29,-192.79 57.28,-384.5 78.62,-562.49 30.51,-254.35 57.91,-482.73 110.53,-662.39 -87.81,-187.43 -137.54,-384.42 -160.23,-582.02 -40.4,-351.83 6.13,-704.06 74.38,-1004.08 189.08,-831.49 182.99,-848.26 52.27,-1192.02l-0.22 0.07c-59.21,-155.7 -140.68,-369.91 -240.27,-719.68 -65.68,-230.72 -154.46,-551.41 -241.84,-867.12 -185.09,-668.64 -363.11,-1311.76 -468.36,-1597.35 -124.96,-339.05 -249.28,-592.39 -418.17,-737.89 -155.51,-133.97 -364.66,-180.75 -674.34,-125.06 -266.01,47.83 -626.96,112.66 -1020.07,162.49 -396.49,50.25 -824.74,85.15 -1220.53,72.12 -491.71,-16.18 -940.04,-68.79 -1420.1,-125.11 -272.03,-31.92 -554.03,-65.01 -829.48,-90.94 -578.43,-54.47 -1161.99,-61.79 -1714.54,-68.72 -423.34,-5.31 -828.91,-10.41 -1195,-35.11 -700.8,-47.29 -1227.28,-143.29 -1672.93,-224.53 -494.11,-90.08 -885.25,-161.39 -1302.62,-122.28 -856.37,80.25 -1521.97,76.11 -2027.66,34.7 -947.01,-77.57 -1373.82,-297.55 -1430.51,-341.64 -93.93,-73.05 -166.57,-156.98 -221.72,-247.84l0 20717.59c825.9,1207.71 1761.38,2334.53 2792.57,3365.72 1200.35,1200.35 2530.05,2271.34 3966.34,3190.36 199.82,-477.31 567.98,-538.89 868.51,-589.07 102.12,-17.05 193.64,-32.34 239.69,-62.96l16.04 -10.68 17.66 -6.5c70.12,-25.83 142.66,-112.2 215.64,-240.71 84.95,-149.58 163.68,-350.14 236.37,-579.63 73.95,-233.49 177.74,-669.07 305.31,-1204.61 319.06,-1339.29 785.55,-3297.39 1336.08,-4392.71 103.81,-206.51 255.97,-420.16 432.38,-632.86 172.12,-207.52 370.49,-417.93 569.82,-620.78 157.14,-159.91 305.41,-307.89 444.77,-446.98 687.36,-686.03 1154.01,-1151.77 1460.13,-1835.53 270.25,-603.64 490.48,-1669.34 668.07,-2528.74 38.45,-186.05 75.2,-363.82 98.74,-473.91 42.82,-200.21 158.49,-669.16 437.2,-1296.35 277.11,-623.59 715.44,-1403.08 1403.23,-2226.41 185.93,-222.56 298.33,-503.7 372.45,-797.32zm13411.77 19816.72c-5.33,2.78 -10.87,5.3 -16.61,7.53 -1879.14,857.13 -3889.11,1477.28 -5991.82,1821.94l15521.69 0 0 -9687.74c-769.83,1079.44 -1627.4,2091.99 -2562.46,3027.06 -1997.6,1997.59 -4348.49,3641.8 -6950.8,4831.21zm-25621.12 -29892.83c66.33,-1.54 129.57,37.93 155.11,103.31 32.65,83.55 -8.62,177.77 -92.18,210.41 -387.4,152.11 -648.42,208.36 -838.94,207.78 -262.74,1.23 -392.6,-104.49 -531.76,-217.85 -99.36,-80.95 -205.56,-167.46 -428.08,-180.98 -41.34,-2.51 -99.1,-11.77 -172.29,-23.5 -123.65,-19.81 -296.45,-47.51 -487.33,-56.25 -89.52,-3.86 -158.96,-79.58 -155.1,-169.09 3.82,-88.42 77.73,-157.24 165.79,-155.2 3.54,-0.08 7.1,-0.06 10.69,0.09 209.31,9.57 392.85,39.01 524.19,60.04 62.71,10.05 112.19,17.99 140.5,19.71 327.01,19.86 475.13,140.53 613.71,253.43 87.48,71.27 169.55,138.03 343.02,138.53 146.77,-1.16 358.04,-48.96 689.99,-179.29 20.6,-8.05 41.86,-11.6 62.68,-11.14zm-3671.65 -517.55c60.36,-137.25 126.66,-234.17 154.38,-251.54 293.24,-183.81 638.71,-187.27 1009.31,-190.96 124.76,-1.22 252.78,-2.51 389.24,-12.34 189.95,-13.68 320.88,-64.92 438.02,-110.76 217.35,-85.06 397.28,-155.46 753.29,-39.32 203.96,66.54 396.92,163.12 594.14,261.83 350.79,175.58 716.34,358.55 1168.27,358.55 202.86,0 453.22,-11.84 687.77,-22.93 215.83,-10.2 418.72,-19.79 560.92,-19.49 1468.58,3.14 2124.78,86.8 2741.25,165.38 340.28,43.38 668.22,85.19 1122.67,110.6 1093.64,61.15 1736.29,20.6 2243.95,-75.47 -104.99,-59.74 -215.27,-119.77 -326.01,-178.24 -361.7,-190.97 -729.81,-366.34 -936.82,-461.99 -557.73,-257.67 -1007.92,-368.5 -1524.57,-495.66 -513.41,-126.38 -1090.92,-268.54 -1903.7,-582.69 -371.81,-143.7 -745.22,-323.2 -1150.16,-569.21 -400.35,-243.2 -829.94,-550.56 -1317.49,-951.65 -437.41,-269.42 -728.34,-302.43 -987.82,-331.83 -159.49,-18.07 -308.57,-34.97 -477.21,-96.15 -135.8,-49.25 -298.26,-132.24 -470.3,-232.15 -166.6,-96.76 -345.45,-211.37 -518.29,-326.73 -189.99,-126.8 -378.78,-259.1 -532.59,-366.86 -17.48,-12.25 48.6,33.98 -130.08,-90.32 -75.11,-52.25 -158.41,-151.27 -223.81,-254.16 -67.26,-105.8 -120.39,-224.81 -131.26,-310.59 -17.61,-138.95 -80.68,-233.86 -135.69,-316.63 -90.17,-135.7 -166.38,-250.47 -137.42,-419.83 -334.5,423.46 -654.74,858.72 -959.99,1305.03l0 4506.11zm12382.35 47.9c137.48,-39.79 273.17,-83.16 416,-128.83 403.41,-128.99 862.09,-275.63 1563.21,-412.45 -106.57,-86.7 -224.06,-171.84 -346.24,-253.67 -296.86,-198.8 -621.16,-377.55 -886.12,-511.7 -366.59,-185.61 -764.29,-354.21 -1132.39,-478.94 -340.36,-115.33 -652.4,-192.26 -885.89,-208.72 -179.96,-12.83 -409.08,-73.31 -633.9,-168.28 -206.34,-87.15 -411.44,-204 -574.17,-340.32 -252.12,-211.2 -462.6,-369.28 -669.47,-500.78 -205.55,-130.67 -408.22,-235.4 -645.71,-340.54 -590.95,-261.63 -1099.56,-365.15 -1592.54,-465.49 -655.28,-133.37 -1284.1,-261.37 -2045.21,-726.92 -311.56,-190.57 -450.92,-371.25 -594.06,-556.85 -143.63,-186.23 -291.68,-378.19 -664.22,-588.52 -65.09,-36.75 -196.49,-89.44 -322.93,-127.76 -91.1,-27.61 -172.63,-46.58 -207.24,-42.46 -198.62,23.71 -370.99,-78.02 -585.54,-204.65 -107.49,-63.45 -227.55,-134.31 -363.34,-194.26 -39.37,-17.38 -108.68,-41.44 -179.13,-36.11 -38.63,2.91 -78.7,15.57 -114.08,45.79 -98.62,84.25 -220.68,107.29 -338.84,129.6 -74.32,14.02 -146.03,27.57 -157.03,42.51 -186.56,253.34 -130.35,337.93 -55.3,450.86 74.19,111.61 159.23,239.59 186.55,455.23 4.66,36.75 39.01,105.98 84.21,177.09 44.87,70.58 95.89,134.25 134.83,161.33 99.6,69.29 18.74,13.59 130.08,91.6 148.21,103.84 330.11,231.31 527.49,363.05 165.44,110.41 337.73,220.76 500.5,315.29 157.33,91.37 302.59,166.06 418.18,207.98 131.4,47.66 262.23,62.49 402.2,78.36 295.33,33.46 626.63,71.02 1131.85,384.56l9.57 5.94 8.22 6.78c479.81,395.25 899.45,696.02 1287.87,931.98 386.18,234.61 743.18,406.14 1099.33,543.78 791.33,305.86 1359.32,445.68 1864.27,569.97 533.22,131.25 997.86,245.62 1583.07,516 209.65,96.86 583.06,274.79 952.07,469.62 68.94,36.4 137.66,73.36 205.11,110.45 144,71.5 308.91,147.89 488.74,229.48zm2393.12 -608c156.02,-17.19 318.76,-25.62 490.96,-24.35 276.69,2.03 575.61,28.81 907.78,84.15 130.74,21.78 250.43,35.42 346.74,39.56 65.21,2.79 116.01,1.87 147.28,-3.23 5.16,-2.18 10.46,-4.13 15.93,-5.81 78.53,-24.37 154.29,-52.39 227.2,-83.55 -146.47,-166.5 -422.83,-274.14 -719.31,-331.43 -101.35,-19.58 -203.99,-33.17 -303.98,-41.18 -8.93,0.05 -17.86,-0.61 -26.69,-2.02 -299.52,-21.11 -571.9,8.21 -709.89,77.92 -80.03,40.37 -177.67,8.2 -218.04,-71.83 -40.37,-80.04 -8.2,-177.67 71.83,-218.04 91.25,-46.09 222.22,-79.64 375.59,-98.67 -221.93,-99.95 -488.53,-165.73 -762.15,-199.93 -381.75,-47.71 -770.27,-33.79 -1068.2,34.38 208.21,113.39 432.7,245.14 645.34,387.54 214.52,143.67 417.1,298.35 579.61,456.49zm-10477.24 -3959.99c89.88,0 162.74,72.87 162.74,162.74 0,89.88 -72.86,162.74 -162.74,162.74 -979.75,0 -1114.12,-238.51 -1266.09,-508.24 -62.85,-111.57 -130.04,-230.84 -331.74,-324.51 -39.58,-18.38 -89.28,-47.71 -152.29,-84.89 -108.67,-64.12 -260.52,-153.71 -433.01,-230.71 -81.79,-36.51 -118.51,-132.44 -82,-214.23 36.51,-81.79 132.44,-118.51 214.23,-82 193.29,86.29 352.28,180.1 466.06,247.22 55.54,32.77 99.33,58.61 123.06,69.64 297.62,138.23 391.45,304.77 479.21,460.56 102.16,181.33 192.51,341.68 982.57,341.68zm-2891.77 -1839.17c37.11,-9.25 75.52,-16.5 114.32,-23.83 76.19,-14.37 154.9,-29.24 187.53,-57.12 95.76,-81.79 200.93,-115.79 301,-123.35 138.98,-10.5 264.4,31.98 334.23,62.81 152.39,67.28 281.81,143.67 397.67,212.05 161.79,95.49 291.79,172.21 382.11,161.43 81.11,-9.68 209.72,15.85 339.48,55.17 146.45,44.38 304.54,108.75 387.76,155.73 431.33,243.54 599.24,461.23 762.13,672.43 124.53,161.49 245.77,318.67 506.33,478.04 713.42,436.38 1314.53,558.74 1940.95,686.24 511.35,104.08 1038.96,211.47 1658.65,485.81 253.07,112.03 469.26,223.79 688.93,363.44 218.34,138.78 439.59,304.86 703.8,526.21 138.27,115.83 313.97,215.72 491.54,290.72 192.18,81.18 383.85,132.56 530.28,142.87l0.64 0c261.72,18.44 601.82,101.41 967.26,225.23 339.48,115.03 703.49,266.2 1047.67,433.85 359.26,-162.77 947.77,-220.11 1509.39,-149.92 505.98,63.23 999.7,230.07 1301.89,516.64 97.77,8.71 196.35,22.25 293.07,40.93 272.42,52.63 535.49,146.28 734.36,287.92 -47.68,-254.89 -177.46,-365.22 -302.51,-471.45 -184.74,-156.93 -361.97,-307.47 -385.9,-696.91 -6.68,-108.88 -4.05,-203.51 -1.63,-290.44 5.72,-204.97 9.99,-357.96 -172.26,-612.37 -71.04,-99.14 -133.79,-212.49 -174.63,-337.8 -35.88,-110.11 -54.34,-228.42 -46.24,-353.11 17.06,-262.15 103.91,-388.72 190.19,-514.42 64.35,-93.75 128.29,-186.89 132.85,-376.95 16.99,-705.4 346.36,-909.95 633.93,-1088.53 113.14,-70.26 217.71,-135.2 264.33,-224 142.87,-272.19 296.12,-506.57 574.49,-684.23l-16117.83 0c-58.98,68.62 -117.57,137.59 -175.78,206.91zm19669.87 -206.91c278.37,177.66 431.62,412.04 574.49,684.23 46.62,88.8 151.19,153.74 264.33,224 287.57,178.58 616.94,383.13 633.93,1088.53 4.56,190.06 68.5,283.2 132.85,376.95 86.28,125.7 173.13,252.27 190.19,514.42 8.1,124.69 -10.35,243 -46.24,353.11 -40.84,125.31 -103.59,238.66 -174.62,337.8 -182.26,254.41 -177.99,407.4 -172.27,612.37 2.42,86.93 5.06,181.56 -1.63,290.44 -23.93,389.44 -201.16,539.98 -385.9,696.91 -123.59,105 -251.83,214.01 -300.83,462.65 197.32,-136.72 455.1,-227.59 721.83,-279.12 96.72,-18.68 195.3,-32.22 293.07,-40.93 302.19,-286.57 795.91,-453.41 1301.9,-516.64 561.61,-70.19 1150.13,-12.85 1509.38,149.92 344.19,-167.65 708.19,-318.82 1047.67,-433.85 365.44,-123.82 705.54,-206.79 967.26,-225.23l0.64 0c146.43,-10.31 338.1,-61.69 530.28,-142.87 177.57,-75 353.27,-174.89 491.54,-290.72 264.21,-221.35 485.46,-387.43 703.8,-526.21 219.68,-139.65 435.86,-251.41 688.93,-363.44 619.7,-274.34 1147.3,-381.73 1658.65,-485.81 626.42,-127.5 1227.53,-249.86 1940.95,-686.24 260.56,-159.37 381.8,-316.55 506.33,-478.04 162.9,-211.2 330.8,-428.89 762.13,-672.43 83.22,-46.98 241.31,-111.35 387.77,-155.73 129.75,-39.32 258.36,-64.85 339.47,-55.17 90.32,10.78 220.32,-65.94 382.12,-161.43 115.86,-68.38 245.27,-144.77 397.66,-212.05 69.84,-30.83 195.25,-73.31 334.23,-62.81 100.07,7.56 205.24,41.56 301,123.35 32.63,27.88 111.35,42.75 187.53,57.12 57.7,10.9 114.53,21.64 167.51,39 -62.38,-74.42 -125.22,-148.46 -188.5,-222.08l-16147.45 0zm1532.67 15708.52c68.32,58.75 130.94,138.45 187.44,228.68 145.95,233.03 263.04,546.98 312.63,690.22 36.82,106.4 68.87,242.94 97.07,397.11 28.62,156.41 52.99,324.59 74.28,494.68 107.24,856.87 216.83,1045.76 452.66,1452.27 139.05,239.72 319.4,550.57 562.67,1090.02 256.18,568.09 492.7,1281.97 684.2,1981.44 225.08,822.16 387.88,1624.43 447.21,2146.16 61.89,350.82 161.53,540.51 271.81,750.46 104.59,199.09 217.91,414.83 321.7,778.71 43.33,151.97 80.15,306.08 111.56,455.41 30.34,144.17 55.32,284.22 76.13,413.23 24.07,149.2 33.61,211.93 41.76,265.57 32.19,211.83 48.49,318.96 84.52,410.16 38.09,96.44 104.9,196.3 239.99,398.21 48.81,72.96 104.68,156.47 143.9,215.88 174.02,263.65 350.37,526.68 510.55,765.63 229.35,342.1 426.84,636.67 493.07,745.92 342.57,564.98 546.98,1199.52 764.46,1874.71 270.93,841.12 562.77,1747.06 1166.97,2632.11 153.44,224.78 339.65,422.87 577.32,527.77 234.34,103.41 527.36,118.87 902.61,-16.61 372.94,-134.67 674.94,-123.59 913.95,-40.08 238.17,83.22 410.12,237.24 527.25,391.57 1235.34,-838.08 2386.77,-1790.55 3438.74,-2842.53 1031.2,-1031.2 1966.68,-2158.03 2792.58,-3365.73l0 -20776.97c-58.06,113.75 -140.74,218.51 -254.82,307.23 -56.69,44.09 -483.5,264.07 -1430.51,341.64 -505.69,41.41 -1171.29,45.55 -2027.66,-34.7 -417.37,-39.11 -808.51,32.2 -1302.62,122.28 -445.65,81.24 -972.13,177.24 -1672.93,224.53 -366.09,24.7 -771.66,29.8 -1195,35.11 -552.55,6.93 -1136.11,14.25 -1714.54,68.72 -275.45,25.93 -557.45,59.02 -829.48,90.94 -480.06,56.32 -928.39,108.93 -1420.1,125.11 -395.79,13.03 -824.04,-21.87 -1220.53,-72.12 -393.11,-49.83 -754.06,-114.66 -1020.07,-162.49 -309.68,-55.69 -518.83,-8.91 -674.35,125.06 -168.88,145.5 -293.2,398.84 -418.16,737.89 -105.25,285.59 -283.27,928.71 -468.36,1597.35 -87.38,315.71 -176.16,636.4 -241.84,867.12 -99.59,349.77 -181.06,563.98 -240.27,719.68l-0.22 -0.07c-130.72,343.76 -136.81,360.53 52.27,1192.02 68.25,300.02 114.78,652.25 74.38,1004.08 -25.32,220.45 -84.28,440.14 -192.22,646.62zm4266.87 -9326.2l1.59 -0.77c65.69,-36.07 132.53,-72 199.59,-107.41 369.01,-194.83 742.42,-372.76 952.07,-469.62 585.21,-270.38 1049.85,-384.75 1583.07,-516 504.95,-124.29 1072.94,-264.11 1864.28,-569.97 356.14,-137.64 713.15,-309.17 1099.32,-543.78 388.42,-235.96 808.06,-536.73 1287.87,-931.98l8.23 -6.78 9.57 -5.94c505.21,-313.54 836.51,-351.1 1131.84,-384.56 139.97,-15.87 270.81,-30.7 402.2,-78.36 115.59,-41.92 260.85,-116.61 418.18,-207.98 162.77,-94.53 335.06,-204.88 500.5,-315.29 197.39,-131.74 379.29,-259.21 527.49,-363.05 111.34,-78.01 30.48,-22.31 130.08,-91.6 38.94,-27.08 89.96,-90.75 134.83,-161.33 45.21,-71.11 79.56,-140.34 84.21,-177.09 27.32,-215.64 112.37,-343.62 186.55,-455.23 75.05,-112.93 131.26,-197.52 -55.29,-450.86 -11.01,-14.94 -82.72,-28.49 -157.04,-42.51 -118.16,-22.31 -240.21,-45.35 -338.83,-129.6 -35.38,-30.22 -75.46,-42.88 -114.09,-45.79 -70.45,-5.33 -139.76,18.73 -179.13,36.11 -135.79,59.95 -255.85,130.81 -363.33,194.26 -214.56,126.63 -386.93,228.36 -585.54,204.65 -34.61,-4.12 -116.15,14.85 -207.25,42.46 -126.44,38.32 -257.83,91.01 -322.93,127.76 -372.54,210.33 -520.59,402.29 -664.22,588.52 -143.14,185.6 -282.5,366.28 -594.06,556.85 -761.11,465.55 -1389.93,593.55 -2045.21,726.92 -492.97,100.34 -1001.59,203.86 -1592.54,465.49 -237.49,105.14 -440.16,209.87 -645.71,340.54 -206.87,131.5 -417.35,289.58 -669.47,500.78 -162.73,136.32 -367.82,253.17 -574.17,340.32 -224.82,94.97 -453.94,155.45 -633.89,168.23 -233.49,16.51 -545.54,93.44 -885.9,208.77 -368.1,124.73 -765.8,293.33 -1132.39,478.94 -264.96,134.15 -589.26,312.9 -886.12,511.7 -121.63,81.46 -238.62,166.22 -344.82,252.52 704.47,137.15 1164.62,284.25 1569.17,413.6 141.33,45.19 275.67,88.14 411.69,127.58 180.02,-81.96 345.14,-158.65 489.6,-230.5zm158.41 283.64c-4.33,2.68 -8.81,5.21 -13.46,7.52l-1.9 0.94c-38.77,21.4 -77.09,42.83 -114.72,64.25 508.53,96.82 1151.85,137.89 2249.47,76.52 454.45,-25.41 782.39,-67.22 1122.67,-110.6 616.47,-78.58 1272.66,-162.24 2741.25,-165.38 142.2,-0.3 345.09,9.29 560.92,19.49 234.55,11.09 484.91,22.93 687.77,22.93 451.93,0 817.48,-182.97 1168.27,-358.55 197.22,-98.71 390.18,-195.29 594.14,-261.83 356.01,-116.14 535.94,-45.74 753.29,39.32 117.14,45.84 248.07,97.08 438.02,110.76 136.46,9.83 264.48,11.12 389.24,12.34 370.6,3.69 716.07,7.15 1009.31,190.96 32.93,20.64 120.3,153.52 187.48,332.93l0 -4587.49c-323.15,-472.49 -663.11,-932.58 -1019,-1379.4 68.55,212.07 -16.12,339.55 -118.89,494.19 -55.01,82.77 -118.08,177.68 -135.69,316.63 -10.87,85.78 -64,204.79 -131.25,310.59 -65.4,102.89 -148.71,201.91 -223.82,254.16 -178.67,124.3 -112.6,78.07 -130.08,90.32 -153.81,107.76 -342.6,240.06 -532.58,366.86 -172.85,115.36 -351.7,229.97 -518.3,326.73 -172.04,99.91 -334.5,182.9 -470.3,232.15 -168.64,61.18 -317.72,78.08 -477.21,96.15 -259.48,29.4 -550.41,62.41 -987.82,331.83 -487.56,401.09 -917.14,708.45 -1317.48,951.65 -404.94,246.01 -778.36,425.51 -1150.17,569.21 -812.78,314.15 -1390.29,456.31 -1903.7,582.69 -516.65,127.16 -966.84,237.99 -1524.57,495.66 -207.01,95.65 -575.12,271.02 -936.82,461.99 -65.18,34.41 -130.2,69.36 -194.07,104.48zm8004.07 731.48c-83.56,-32.64 -124.83,-126.86 -92.18,-210.41 32.64,-83.55 126.86,-124.82 210.41,-92.17 735.77,288.88 878.75,172.44 1040.39,40.76 138.58,-112.9 286.7,-233.57 613.71,-253.43 28.31,-1.72 77.79,-9.66 140.5,-19.71 131.34,-21.03 314.88,-50.47 524.19,-60.04 89.52,-3.86 165.24,65.59 169.1,155.11 3.86,89.51 -65.58,165.23 -155.1,169.09 -190.87,8.74 -363.68,36.44 -487.33,56.25 -73.19,11.73 -130.94,20.99 -172.29,23.5 -222.52,13.52 -328.71,100.03 -428.07,180.98 -239.74,195.29 -451.75,367.98 -1363.33,10.07zm-12951.32 -1299.2c27.38,8.47 85.48,10.6 164.95,7.21 96.31,-4.16 216,-17.8 346.74,-39.58 332.17,-55.34 631.09,-82.12 907.78,-84.15 169.76,-1.25 330.33,6.93 484.32,23.63 162.39,-157.88 364.68,-312.32 578.87,-455.77 212.64,-142.4 437.14,-274.15 645.35,-387.54 -297.94,-68.17 -686.45,-82.09 -1068.21,-34.38 -273.62,34.2 -540.22,99.98 -762.15,199.93 153.37,19.03 284.34,52.58 375.59,98.67 80.03,40.37 112.2,138 71.83,218.04 -40.37,80.03 -138,112.2 -218.04,71.83 -137.99,-69.7 -410.38,-99.03 -709.88,-77.92 -8.84,1.41 -17.76,2.07 -26.69,2.02 -100,8 -202.64,21.6 -303.99,41.18 -296.48,57.29 -572.85,164.93 -719.3,331.43 72.9,31.16 148.67,59.17 227.19,83.55 1.9,0.58 3.78,1.21 5.64,1.85zm12380.29 -3726.68c-89.87,0 -162.74,-72.86 -162.74,-162.74 0,-89.87 72.87,-162.74 162.74,-162.74 790.06,0 880.42,-160.35 982.57,-341.68 87.76,-155.79 181.59,-322.33 479.21,-460.56 23.73,-11.03 67.53,-36.87 123.06,-69.64 113.78,-67.12 272.77,-160.93 466.06,-247.22 81.79,-36.51 177.72,0.21 214.23,82 36.51,81.79 -0.2,177.72 -82,214.23 -172.49,77 -324.34,166.59 -433.01,230.71 -63.01,37.18 -112.71,66.51 -152.29,84.89 -201.7,93.67 -268.89,212.94 -331.74,324.51 -151.97,269.73 -286.34,508.24 -1266.09,508.24zm3183.49 -2371.56c404.09,481.28 789.59,978.7 1155.22,1491.28l0 -1491.28 -1155.22 0zm-22129.13 38806.02c-5022,-823.16 -9515.5,-3216.96 -12959.23,-6660.68 -935.06,-935.07 -1792.62,-1947.62 -2562.45,-3027.05l0 9687.73 15521.68 0zm-15521.68 -37314.75c365.63,-512.57 751.12,-1010 1155.21,-1491.27l-1155.21 0 0 1491.27zm1867.15 -1816.75l17434.26 0 173.59 0 17463.87 0c-299.19,-335.44 -607.67,-662.44 -925.42,-980.19 -4250.96,-4250.96 -10123.64,-6880.24 -16610.44,-6880.24 -6486.8,0 -12359.48,2629.28 -16610.44,6880.24 -317.75,317.75 -626.23,644.75 -925.42,980.19zm37264.53 2874.66c0.49,8503.55 0.59,17007.1 0.35,25510.65 2379.61,-3673.13 3761.67,-8052.61 3761.67,-12755.05 0,-4702.68 -1382.14,-9082.41 -3762.02,-12755.6zm-39457.16 25511.48l0 -25511.76c-2379.99,3673.24 -3762.2,8053.08 -3762.2,12755.88 0,4702.78 1382.27,9082.58 3762.2,12755.88z"/></g><text x="0" y="50015" fill="#000000" font-size="5px" font-weight="bold" font-family="'Helvetica Neue', Helvetica, Arial-Unicode, Arial, Sans-serif">Created by Oleksandr Panasovskyi</text><text x="0" y="50020" fill="#000000" font-size="5px" font-weight="bold" font-family="'Helvetica Neue', Helvetica, Arial-Unicode, Arial, Sans-serif">from the Noun Project</text></svg>