<!--?xml version="1.0" standalone="no"?-->
              <svg id="sw-js-blob-svg" viewBox="0 0 100 100" xmlns="http://www.w3.org/2000/svg" version="1.1">
                    <defs> 
                        <linearGradient id="sw-gradient" x1="0" x2="1" y1="1" y2="0">
                            <stop id="stop1" stop-color="rgba(248, 117, 55, 1)" offset="0%"></stop>
                            <stop id="stop2" stop-color="rgba(251, 168, 31, 1)" offset="100%"></stop>
                        </linearGradient>
                    </defs>
                <path fill="url(#sw-gradient)" d="M22,-31.5C28.5,-25.6,33.7,-19.1,36.5,-11.6C39.3,-4,39.8,4.5,38,13.1C36.2,21.6,32.1,30,25.4,34.2C18.6,38.3,9.3,38.2,-0.1,38.3C-9.5,38.5,-19.1,38.9,-27,35.1C-34.9,31.4,-41.1,23.4,-44.2,14.3C-47.2,5.2,-47,-5,-43.6,-13.7C-40.1,-22.4,-33.4,-29.5,-25.5,-35C-17.7,-40.5,-8.9,-44.3,-0.5,-43.5C7.8,-42.8,15.6,-37.5,22,-31.5Z" width="100%" height="100%" transform="translate(50 50)" stroke-width="0" style="transition: all 0.3s ease 0s;"></path>
              </svg>