<!--?xml version="1.0" standalone="no"?-->
              <svg id="sw-js-blob-svg" viewBox="0 0 100 100" xmlns="http://www.w3.org/2000/svg" version="1.1">
                    <defs> 
                        <linearGradient id="sw-gradient" x1="0" x2="1" y1="1" y2="0">
                            <stop id="stop1" stop-color="rgba(248, 117, 55, 1)" offset="0%"></stop>
                            <stop id="stop2" stop-color="rgba(251, 168, 31, 1)" offset="100%"></stop>
                        </linearGradient>
                    </defs>
                <path fill="url(#sw-gradient)" d="M17.4,-24.5C21.3,-17.4,22.4,-10.8,20.8,-5.8C19.1,-0.8,14.8,2.6,13.4,10.3C12.1,18.1,13.7,30.1,10.7,32.7C7.7,35.2,0,28.2,-5.5,22.9C-11,17.5,-14.2,13.8,-15.4,9.8C-16.6,5.8,-15.7,1.6,-16.3,-4.2C-16.9,-10.1,-18.9,-17.5,-16.4,-24.8C-14,-32.1,-7,-39.2,-0.1,-39.1C6.7,-38.9,13.5,-31.5,17.4,-24.5Z" width="100%" height="100%" transform="translate(50 50)" stroke-width="0" style="transition: all 0.3s ease 0s;"></path>
              </svg>