<!--?xml version="1.0" standalone="no"?-->
              <svg id="sw-js-blob-svg" viewBox="0 0 100 100" xmlns="http://www.w3.org/2000/svg" version="1.1">
                    <defs> 
                        <linearGradient id="sw-gradient" x1="0" x2="1" y1="1" y2="0">
                            <stop id="stop1" stop-color="rgba(248, 117, 55, 1)" offset="0%"></stop>
                            <stop id="stop2" stop-color="rgba(251, 168, 31, 1)" offset="100%"></stop>
                        </linearGradient>
                    </defs>
                <path fill="url(#sw-gradient)" d="M15.3,-19.2C17.4,-16.6,14.9,-9.4,15.5,-3.1C16.2,3.1,20,8.5,19.1,11.9C18.1,15.3,12.4,16.9,7.5,17C2.7,17.2,-1.3,16,-6.9,15.5C-12.6,15,-19.7,15.3,-21.8,12.3C-24,9.3,-21,3.1,-18.2,-1.6C-15.5,-6.3,-13,-9.4,-10,-11.9C-7,-14.3,-3.5,-16.2,1.6,-18C6.6,-19.9,13.3,-21.8,15.3,-19.2Z" width="100%" height="100%" transform="translate(50 50)" stroke-width="0" style="transition: all 0.3s ease 0s;"></path>
              </svg>