<!--?xml version="1.0" standalone="no"?-->
              <svg id="sw-js-blob-svg" viewBox="0 0 100 100" xmlns="http://www.w3.org/2000/svg" version="1.1">
                    <defs> 
                        <linearGradient id="sw-gradient" x1="0" x2="1" y1="1" y2="0">
                            <stop id="stop1" stop-color="rgba(248, 117, 55, 1)" offset="0%"></stop>
                            <stop id="stop2" stop-color="rgba(251, 168, 31, 1)" offset="100%"></stop>
                        </linearGradient>
                    </defs>
                <path fill="url(#sw-gradient)" d="M19.7,-27.1C24.1,-19.7,25.5,-12.2,26.9,-4.7C28.3,2.9,29.7,10.4,27.2,16.6C24.7,22.7,18.2,27.3,11,29.6C3.9,32,-3.9,32,-9.8,28.9C-15.6,25.9,-19.6,19.8,-25.3,13.1C-31,6.4,-38.4,-0.8,-38.3,-7.7C-38.3,-14.6,-30.8,-21.2,-23.2,-28C-15.5,-34.8,-7.8,-41.9,-0.1,-41.8C7.6,-41.7,15.2,-34.5,19.7,-27.1Z" width="100%" height="100%" transform="translate(50 50)" stroke-width="0" style="transition: all 0.3s ease 0s;"></path>
              </svg>