<!--?xml version="1.0" standalone="no"?-->
              <svg id="sw-js-blob-svg" viewBox="0 0 100 100" xmlns="http://www.w3.org/2000/svg" version="1.1">
                    <defs> 
                        <linearGradient id="sw-gradient" x1="0" x2="1" y1="1" y2="0">
                            <stop id="stop1" stop-color="rgba(248, 117, 55, 1)" offset="0%"></stop>
                            <stop id="stop2" stop-color="rgba(251, 168, 31, 1)" offset="100%"></stop>
                        </linearGradient>
                    </defs>
                <path fill="url(#sw-gradient)" d="M25,-27.1C31.2,-24.5,34.3,-15.6,34.7,-7.1C35.1,1.4,32.7,9.4,27.6,13.9C22.6,18.4,15,19.3,7.3,23.7C-0.4,28,-8.2,35.9,-13.5,34.9C-18.9,34,-22,24.2,-23.3,16.2C-24.7,8.2,-24.4,2,-23.6,-4.4C-22.7,-10.7,-21.3,-17.2,-17.3,-20.2C-13.3,-23.2,-6.6,-22.7,1.4,-24.3C9.4,-26,18.7,-29.7,25,-27.1Z" width="100%" height="100%" transform="translate(50 50)" stroke-width="0" style="transition: all 0.3s ease 0s;"></path>
              </svg>