<!--?xml version="1.0" standalone="no"?-->
              <svg id="sw-js-blob-svg" viewBox="0 0 100 100" xmlns="http://www.w3.org/2000/svg" version="1.1">
                    <defs> 
                        <linearGradient id="sw-gradient" x1="0" x2="1" y1="1" y2="0">
                            <stop id="stop1" stop-color="rgba(248, 117, 55, 1)" offset="0%"></stop>
                            <stop id="stop2" stop-color="rgba(251, 168, 31, 1)" offset="100%"></stop>
                        </linearGradient>
                    </defs>
                <path fill="url(#sw-gradient)" d="M24.2,-28.4C29.3,-24.6,29.9,-15,29.1,-7C28.3,1.1,26.3,7.5,23.7,15.4C21.2,23.2,18.2,32.5,12.3,35.3C6.4,38.1,-2.4,34.5,-9.6,30.2C-16.8,25.9,-22.3,21,-28.4,14.4C-34.6,7.9,-41.4,-0.3,-42.1,-9.4C-42.8,-18.4,-37.4,-28.3,-29.4,-31.5C-21.3,-34.7,-10.7,-31.2,-0.5,-30.6C9.6,-29.9,19.2,-32.1,24.2,-28.4Z" width="100%" height="100%" transform="translate(50 50)" stroke-width="0" style="transition: all 0.3s ease 0s;"></path>
              </svg>