<!--?xml version="1.0" standalone="no"?-->
              <svg id="sw-js-blob-svg" viewBox="0 0 100 100" xmlns="http://www.w3.org/2000/svg" version="1.1">
                    <defs> 
                        <linearGradient id="sw-gradient" x1="0" x2="1" y1="1" y2="0">
                            <stop id="stop1" stop-color="rgba(248, 117, 55, 1)" offset="0%"></stop>
                            <stop id="stop2" stop-color="rgba(251, 168, 31, 1)" offset="100%"></stop>
                        </linearGradient>
                    </defs>
                <path fill="url(#sw-gradient)" d="M26.9,-30.2C34.9,-25.3,41.5,-16.9,43.1,-7.6C44.7,1.6,41.2,11.7,35.3,18.7C29.3,25.7,20.7,29.7,12.6,31C4.5,32.4,-3.2,31.2,-12,29.5C-20.7,27.7,-30.5,25.5,-34.4,19.5C-38.2,13.5,-36,3.8,-33.9,-5.6C-31.8,-15,-29.8,-24,-24.1,-29.3C-18.5,-34.6,-9.2,-36.2,0.1,-36.3C9.4,-36.4,18.8,-35,26.9,-30.2Z" width="100%" height="100%" transform="translate(50 50)" stroke-width="0" style="transition: all 0.3s ease 0s;"></path>
              </svg>