<!--?xml version="1.0" standalone="no"?-->
              <svg id="sw-js-blob-svg" viewBox="0 0 100 100" xmlns="http://www.w3.org/2000/svg" version="1.1">
                    <defs> 
                        <linearGradient id="sw-gradient" x1="0" x2="1" y1="1" y2="0">
                            <stop id="stop1" stop-color="rgba(248, 117, 55, 1)" offset="0%"></stop>
                            <stop id="stop2" stop-color="rgba(251, 168, 31, 1)" offset="100%"></stop>
                        </linearGradient>
                    </defs>
                <path fill="url(#sw-gradient)" d="M21.1,-26.6C26.9,-20.3,30.8,-13.2,34.2,-4.5C37.6,4.2,40.4,14.6,36.7,21.3C32.9,28,22.7,31.1,13.2,33.3C3.6,35.5,-5.1,36.9,-12.6,34.3C-20,31.7,-26.1,25.2,-30.1,17.7C-34.1,10.2,-35.9,1.8,-35.4,-7.2C-35,-16.1,-32.2,-25.6,-25.9,-31.8C-19.6,-37.9,-9.8,-40.8,-1.1,-39.5C7.7,-38.2,15.3,-32.8,21.1,-26.6Z" width="100%" height="100%" transform="translate(50 50)" stroke-width="0" style="transition: all 0.3s ease 0s;"></path>
              </svg>