<!--?xml version="1.0" standalone="no"?-->
              <svg id="sw-js-blob-svg" viewBox="0 0 100 100" xmlns="http://www.w3.org/2000/svg" version="1.1">
                    <defs> 
                        <linearGradient id="sw-gradient" x1="0" x2="1" y1="1" y2="0">
                            <stop id="stop1" stop-color="rgba(248, 117, 55, 1)" offset="0%"></stop>
                            <stop id="stop2" stop-color="rgba(251, 168, 31, 1)" offset="100%"></stop>
                        </linearGradient>
                    </defs>
                <path fill="url(#sw-gradient)" d="M24.2,-28.1C31.7,-22.6,38.4,-15.3,41.4,-6.1C44.4,3,43.7,13.9,38.6,21.9C33.5,29.9,24,34.9,14.4,37.6C4.7,40.3,-5.1,40.6,-14.7,38.1C-24.4,35.6,-33.8,30.3,-38.9,22.1C-44,14,-44.7,3,-42.7,-7.4C-40.8,-17.9,-36.2,-27.7,-28.6,-33.3C-21,-38.8,-10.5,-40.1,-1.1,-38.8C8.4,-37.5,16.7,-33.7,24.2,-28.1Z" width="100%" height="100%" transform="translate(50 50)" stroke-width="0" style="transition: all 0.3s ease 0s;"></path>
              </svg>