<!--?xml version="1.0" standalone="no"?-->
              <svg id="sw-js-blob-svg" viewBox="0 0 100 100" xmlns="http://www.w3.org/2000/svg" version="1.1">
                    <defs> 
                        <linearGradient id="sw-gradient" x1="0" x2="1" y1="1" y2="0">
                            <stop id="stop1" stop-color="rgba(248, 117, 55, 1)" offset="0%"></stop>
                            <stop id="stop2" stop-color="rgba(251, 168, 31, 1)" offset="100%"></stop>
                        </linearGradient>
                    </defs>
                <path fill="url(#sw-gradient)" d="M20.2,-27.9C26.8,-23,33.2,-17.9,36.7,-11C40.2,-4.1,40.8,4.7,38.6,12.9C36.5,21.1,31.4,28.7,24.5,32.3C17.6,35.9,8.8,35.4,0.4,34.8C-8,34.3,-15.9,33.6,-22.5,29.9C-29.1,26.2,-34.3,19.5,-37.6,11.7C-40.8,3.9,-42.1,-5.1,-40.1,-13.6C-38.1,-22.1,-32.9,-30,-25.6,-34.7C-18.4,-39.4,-9.2,-40.8,-1.2,-39.2C6.8,-37.5,13.6,-32.8,20.2,-27.9Z" width="100%" height="100%" transform="translate(50 50)" stroke-width="0" style="transition: all 0.3s ease 0s;"></path>
              </svg>