<!--?xml version="1.0" standalone="no"?-->
              <svg id="sw-js-blob-svg" viewBox="0 0 100 100" xmlns="http://www.w3.org/2000/svg" version="1.1">
                    <defs> 
                        <linearGradient id="sw-gradient" x1="0" x2="1" y1="1" y2="0">
                            <stop id="stop1" stop-color="rgba(248, 117, 55, 1)" offset="0%"></stop>
                            <stop id="stop2" stop-color="rgba(251, 168, 31, 1)" offset="100%"></stop>
                        </linearGradient>
                    </defs>
                <path fill="url(#sw-gradient)" d="M17,-24C21.7,-20,24.8,-14.5,28.1,-8.2C31.5,-1.8,35.1,5.4,34.8,12.8C34.4,20.3,30.2,27.9,23.7,33.1C17.3,38.2,8.6,40.8,0.4,40.3C-7.9,39.8,-15.7,36.1,-22.6,31.1C-29.5,26.1,-35.5,19.8,-36.5,12.8C-37.5,5.8,-33.6,-1.9,-30.5,-9.5C-27.5,-17,-25.2,-24.3,-20.3,-28.2C-15.3,-32,-7.7,-32.3,-0.7,-31.3C6.2,-30.2,12.4,-27.9,17,-24Z" width="100%" height="100%" transform="translate(50 50)" stroke-width="0" style="transition: all 0.3s ease 0s;"></path>
              </svg>