<!--?xml version="1.0" standalone="no"?-->
              <svg id="sw-js-blob-svg" viewBox="0 0 100 100" xmlns="http://www.w3.org/2000/svg" version="1.1">
                    <defs> 
                        <linearGradient id="sw-gradient" x1="0" x2="1" y1="1" y2="0">
                            <stop id="stop1" stop-color="rgba(248, 117, 55, 1)" offset="0%"></stop>
                            <stop id="stop2" stop-color="rgba(251, 168, 31, 1)" offset="100%"></stop>
                        </linearGradient>
                    </defs>
                <path fill="url(#sw-gradient)" d="M21.8,-26.4C29.5,-24.5,37.8,-19.7,39.5,-13.1C41.2,-6.6,36.3,1.8,32.8,10.1C29.4,18.4,27.4,26.7,22.1,31.8C16.9,37,8.4,39.1,0.2,38.8C-8,38.5,-16.1,35.8,-23.6,31.4C-31.2,27,-38.3,20.9,-40.7,13.3C-43.1,5.7,-40.8,-3.4,-36.1,-9.9C-31.5,-16.3,-24.4,-20,-18,-22.4C-11.5,-24.7,-5.8,-25.7,0.7,-26.6C7.1,-27.5,14.2,-28.4,21.8,-26.4Z" width="100%" height="100%" transform="translate(50 50)" stroke-width="0" style="transition: all 0.3s ease 0s;"></path>
              </svg>