<!--?xml version="1.0" standalone="no"?-->
              <svg id="sw-js-blob-svg" viewBox="0 0 100 100" xmlns="http://www.w3.org/2000/svg" version="1.1">
                    <defs> 
                        <linearGradient id="sw-gradient" x1="0" x2="1" y1="1" y2="0">
                            <stop id="stop1" stop-color="rgba(248, 117, 55, 1)" offset="0%"></stop>
                            <stop id="stop2" stop-color="rgba(251, 168, 31, 1)" offset="100%"></stop>
                        </linearGradient>
                    </defs>
                <path fill="url(#sw-gradient)" d="M20.2,-31.5C23.8,-25.2,22.6,-16.1,22.2,-9.1C21.8,-2.2,22.2,2.6,23.1,9.9C24,17.3,25.5,27.2,21.8,29.8C18,32.4,9,27.7,0.8,26.6C-7.4,25.5,-14.8,28,-22.3,26.6C-29.9,25.3,-37.6,20,-40.5,12.8C-43.3,5.6,-41.3,-3.6,-37.7,-11.5C-34.1,-19.4,-28.9,-26,-22.4,-31.3C-15.8,-36.6,-7.9,-40.6,0.2,-40.9C8.3,-41.2,16.7,-37.8,20.2,-31.5Z" width="100%" height="100%" transform="translate(50 50)" stroke-width="0" style="transition: all 0.3s ease 0s;"></path>
              </svg>