<!--?xml version="1.0" standalone="no"?-->
              <svg id="sw-js-blob-svg" viewBox="0 0 100 100" xmlns="http://www.w3.org/2000/svg" version="1.1">
                    <defs> 
                        <linearGradient id="sw-gradient" x1="0" x2="1" y1="1" y2="0">
                            <stop id="stop1" stop-color="rgba(248, 117, 55, 1)" offset="0%"></stop>
                            <stop id="stop2" stop-color="rgba(251, 168, 31, 1)" offset="100%"></stop>
                        </linearGradient>
                    </defs>
                <path fill="url(#sw-gradient)" d="M17,-27C20.9,-20.5,22.1,-14.1,25.2,-7.5C28.3,-0.9,33.3,5.8,34.3,13.7C35.3,21.7,32.3,31,25.9,35.5C19.5,40,9.7,39.9,0.3,39.4C-9.1,39,-18.2,38.3,-20.8,32.5C-23.5,26.8,-19.7,16,-21.1,7.8C-22.4,-0.4,-29,-6,-29.9,-11.8C-30.9,-17.7,-26.4,-23.8,-20.4,-29.6C-14.5,-35.4,-7.3,-40.8,-0.4,-40.3C6.5,-39.8,13.1,-33.4,17,-27Z" width="100%" height="100%" transform="translate(50 50)" stroke-width="0" style="transition: all 0.3s ease 0s;"></path>
              </svg>