<!--?xml version="1.0" standalone="no"?-->
              <svg id="sw-js-blob-svg" viewBox="0 0 100 100" xmlns="http://www.w3.org/2000/svg" version="1.1">
                    <defs> 
                        <linearGradient id="sw-gradient" x1="0" x2="1" y1="1" y2="0">
                            <stop id="stop1" stop-color="rgba(248, 117, 55, 1)" offset="0%"></stop>
                            <stop id="stop2" stop-color="rgba(251, 168, 31, 1)" offset="100%"></stop>
                        </linearGradient>
                    </defs>
                <path fill="url(#sw-gradient)" d="M18.4,-25.7C21,-23.4,18.3,-14.2,19.8,-7.1C21.3,0.1,26.9,5.3,26.7,9.4C26.4,13.5,20.3,16.5,14.8,19.6C9.4,22.7,4.7,26,-0.9,27.3C-6.6,28.6,-13.1,27.8,-19.3,24.9C-25.5,22.1,-31.4,17.1,-30.4,11.8C-29.3,6.6,-21.5,1.1,-18.1,-4.8C-14.7,-10.8,-15.9,-17.1,-13.6,-19.5C-11.4,-21.9,-5.7,-20.4,1.1,-21.9C7.9,-23.4,15.7,-28,18.4,-25.7Z" width="100%" height="100%" transform="translate(50 50)" stroke-width="0" style="transition: all 0.3s ease 0s;"></path>
              </svg>