<!--?xml version="1.0" standalone="no"?-->
              <svg id="sw-js-blob-svg" viewBox="0 0 100 100" xmlns="http://www.w3.org/2000/svg" version="1.1">
                    <defs> 
                        <linearGradient id="sw-gradient" x1="0" x2="1" y1="1" y2="0">
                            <stop id="stop1" stop-color="rgba(248, 117, 55, 1)" offset="0%"></stop>
                            <stop id="stop2" stop-color="rgba(251, 168, 31, 1)" offset="100%"></stop>
                        </linearGradient>
                    </defs>
                <path fill="url(#sw-gradient)" d="M12.2,-15.5C17.3,-13,24.2,-11.5,29.8,-6.7C35.5,-1.9,40,6.3,35.9,9.5C31.9,12.7,19.3,11,11.9,13.9C4.5,16.8,2.3,24.3,-3.5,29.2C-9.4,34,-18.7,36.3,-25.5,33.2C-32.3,30.2,-36.5,21.7,-37.3,13.5C-38.2,5.3,-35.6,-2.7,-31.6,-8.8C-27.6,-14.8,-22.1,-18.9,-16.6,-21.3C-11.1,-23.7,-5.6,-24.5,-1,-23.1C3.5,-21.7,7,-18.1,12.2,-15.5Z" width="100%" height="100%" transform="translate(50 50)" stroke-width="0" style="transition: all 0.3s ease 0s;"></path>
              </svg>