<!--?xml version="1.0" standalone="no"?-->
              <svg id="sw-js-blob-svg" viewBox="0 0 100 100" xmlns="http://www.w3.org/2000/svg" version="1.1">
                    <defs> 
                        <linearGradient id="sw-gradient" x1="0" x2="1" y1="1" y2="0">
                            <stop id="stop1" stop-color="rgba(248, 117, 55, 1)" offset="0%"></stop>
                            <stop id="stop2" stop-color="rgba(251, 168, 31, 1)" offset="100%"></stop>
                        </linearGradient>
                    </defs>
                <path fill="url(#sw-gradient)" d="M18.8,-24.5C21.9,-23.7,20.2,-14.8,21.1,-7.8C22.1,-0.8,25.9,4.4,26.4,10.4C27,16.4,24.4,23.2,19.5,23.4C14.5,23.5,7.3,17.1,-0.6,17.9C-8.5,18.8,-17,27,-24.4,27.6C-31.7,28.2,-37.8,21.2,-35.7,14.7C-33.6,8.1,-23.3,1.9,-19.2,-4.8C-15,-11.5,-17,-18.8,-14.8,-19.9C-12.6,-20.9,-6.3,-15.8,0.8,-16.9C7.9,-18,15.8,-25.3,18.8,-24.5Z" width="100%" height="100%" transform="translate(50 50)" stroke-width="0" style="transition: all 0.3s ease 0s;"></path>
              </svg>