<!--?xml version="1.0" standalone="no"?-->
              <svg id="sw-js-blob-svg" viewBox="0 0 100 100" xmlns="http://www.w3.org/2000/svg" version="1.1">
                    <defs> 
                        <linearGradient id="sw-gradient" x1="0" x2="1" y1="1" y2="0">
                            <stop id="stop1" stop-color="rgba(248, 117, 55, 1)" offset="0%"></stop>
                            <stop id="stop2" stop-color="rgba(251, 168, 31, 1)" offset="100%"></stop>
                        </linearGradient>
                    </defs>
                <path fill="url(#sw-gradient)" d="M20.1,-28.5C22.8,-25.8,19.2,-15.5,21.8,-7.2C24.3,1.1,32.8,7.3,33.8,13.1C34.8,18.9,28.3,24.4,21.4,30.3C14.5,36.2,7.2,42.6,-1.2,44.2C-9.6,45.7,-19.1,42.6,-19.6,34.6C-20.1,26.6,-11.6,13.8,-11.7,5.6C-11.7,-2.5,-20.5,-6,-20.3,-6.5C-20,-7.1,-10.8,-4.6,-5.9,-6.5C-1,-8.4,-0.5,-14.7,4.1,-20.3C8.8,-26,17.5,-31.1,20.1,-28.5Z" width="100%" height="100%" transform="translate(50 50)" stroke-width="0" style="transition: all 0.3s ease 0s;"></path>
              </svg>