<!--?xml version="1.0" standalone="no"?-->
              <svg id="sw-js-blob-svg" viewBox="0 0 100 100" xmlns="http://www.w3.org/2000/svg" version="1.1">
                    <defs> 
                        <linearGradient id="sw-gradient" x1="0" x2="1" y1="1" y2="0">
                            <stop id="stop1" stop-color="rgba(248, 117, 55, 1)" offset="0%"></stop>
                            <stop id="stop2" stop-color="rgba(251, 168, 31, 1)" offset="100%"></stop>
                        </linearGradient>
                    </defs>
                <path fill="url(#sw-gradient)" d="M19.2,-26.9C26.7,-25.1,35.8,-22.8,37.4,-17.6C39,-12.4,33.1,-4.2,31,3.8C28.8,11.8,30.4,19.8,27.1,23.5C23.9,27.2,15.8,26.8,10,23.8C4.2,20.8,0.6,15.4,-1.7,11.9C-4.1,8.5,-5.3,7.1,-8.9,6C-12.6,4.9,-18.7,4.2,-18.9,2.7C-19.1,1.2,-13.4,-1.2,-10.3,-3.3C-7.2,-5.5,-6.7,-7.6,-5.4,-12.2C-4.1,-16.9,-2.1,-24.2,1.9,-27.2C5.9,-30.1,11.7,-28.8,19.2,-26.9Z" width="100%" height="100%" transform="translate(50 50)" stroke-width="0" style="transition: all 0.3s ease 0s;"></path>
              </svg>