<!--?xml version="1.0" standalone="no"?-->
              <svg id="sw-js-blob-svg" viewBox="0 0 100 100" xmlns="http://www.w3.org/2000/svg" version="1.1">
                    <defs> 
                        <linearGradient id="sw-gradient" x1="0" x2="1" y1="1" y2="0">
                            <stop id="stop1" stop-color="rgba(248, 117, 55, 1)" offset="0%"></stop>
                            <stop id="stop2" stop-color="rgba(251, 168, 31, 1)" offset="100%"></stop>
                        </linearGradient>
                    </defs>
                <path fill="url(#sw-gradient)" d="M15.8,-25.2C20.5,-21.6,24.2,-17.2,29.2,-11.7C34.2,-6.2,40.5,0.2,37.7,4C34.9,7.7,23.1,8.7,17.5,15.3C12,21.8,12.8,34,9,38.9C5.2,43.9,-3.2,41.7,-9.8,37.8C-16.4,33.9,-21.3,28.3,-24.4,22.4C-27.5,16.6,-28.8,10.4,-29.6,4.3C-30.4,-1.8,-30.7,-8,-27.5,-11.6C-24.3,-15.1,-17.6,-16.1,-12.5,-19.4C-7.3,-22.6,-3.7,-28.2,1,-29.7C5.6,-31.2,11.2,-28.7,15.8,-25.2Z" width="100%" height="100%" transform="translate(50 50)" stroke-width="0" style="transition: all 0.3s ease 0s;"></path>
              </svg>