<!--?xml version="1.0" standalone="no"?-->
              <svg id="sw-js-blob-svg" viewBox="0 0 100 100" xmlns="http://www.w3.org/2000/svg" version="1.1">
                    <defs> 
                        <linearGradient id="sw-gradient" x1="0" x2="1" y1="1" y2="0">
                            <stop id="stop1" stop-color="rgba(248, 117, 55, 1)" offset="0%"></stop>
                            <stop id="stop2" stop-color="rgba(251, 168, 31, 1)" offset="100%"></stop>
                        </linearGradient>
                    </defs>
                <path fill="url(#sw-gradient)" d="M10.8,-19.3C13.5,-15.1,14.7,-11.2,16.9,-7.4C19.1,-3.6,22.3,0,23.7,4.7C25,9.4,24.5,15.1,21.6,19.1C18.7,23.2,13.5,25.5,8.7,24.8C3.8,24,-0.5,20.2,-4.2,17.6C-8,15,-11.1,13.7,-18.3,12.1C-25.5,10.6,-36.8,8.7,-37.2,5.4C-37.6,2.1,-27.1,-2.8,-22.2,-8.7C-17.2,-14.6,-17.8,-21.7,-15.1,-25.8C-12.3,-29.9,-6.1,-31.1,-1,-29.5C4.1,-27.9,8.2,-23.5,10.8,-19.3Z" width="100%" height="100%" transform="translate(50 50)" stroke-width="0" style="transition: all 0.3s ease 0s;"></path>
              </svg>