<!--?xml version="1.0" standalone="no"?-->
              <svg id="sw-js-blob-svg" viewBox="0 0 100 100" xmlns="http://www.w3.org/2000/svg" version="1.1">
                    <defs> 
                        <linearGradient id="sw-gradient" x1="0" x2="1" y1="1" y2="0">
                            <stop id="stop1" stop-color="rgba(248, 117, 55, 1)" offset="0%"></stop>
                            <stop id="stop2" stop-color="rgba(251, 168, 31, 1)" offset="100%"></stop>
                        </linearGradient>
                    </defs>
                <path fill="url(#sw-gradient)" d="M11.7,-20.2C15.1,-16,17.8,-12.7,20.6,-8.8C23.4,-4.9,26.3,-0.3,28,5.6C29.6,11.6,30,19,26.2,21.7C22.3,24.4,14.2,22.5,6.7,26.1C-0.7,29.7,-7.4,38.8,-11.7,38.2C-16,37.7,-17.9,27.4,-20.3,20.1C-22.7,12.8,-25.5,8.4,-29.2,2.4C-32.9,-3.7,-37.4,-11.4,-36,-17.2C-34.5,-22.9,-27,-26.7,-20.1,-29.3C-13.1,-32,-6.5,-33.4,-1.2,-31.5C4.1,-29.7,8.3,-24.5,11.7,-20.2Z" width="100%" height="100%" transform="translate(50 50)" stroke-width="0" style="transition: all 0.3s ease 0s;"></path>
              </svg>