<!--?xml version="1.0" standalone="no"?-->
              <svg id="sw-js-blob-svg" viewBox="0 0 100 100" xmlns="http://www.w3.org/2000/svg" version="1.1">
                    <defs> 
                        <linearGradient id="sw-gradient" x1="0" x2="1" y1="1" y2="0">
                            <stop id="stop1" stop-color="rgba(248, 117, 55, 1)" offset="0%"></stop>
                            <stop id="stop2" stop-color="rgba(251, 168, 31, 1)" offset="100%"></stop>
                        </linearGradient>
                    </defs>
                <path fill="url(#sw-gradient)" d="M23.3,-35.5C29.7,-32.1,34.1,-24.8,37.7,-17.2C41.3,-9.5,44.1,-1.4,42.8,6C41.6,13.4,36.3,20.1,29.9,24C23.6,27.8,16.1,28.7,9,30.8C2,32.9,-4.8,36.2,-11.1,35.4C-17.4,34.7,-23.3,30,-28.6,24.5C-33.8,18.9,-38.5,12.6,-38.3,6.2C-38.1,-0.1,-33,-6.4,-30.1,-14.1C-27.2,-21.9,-26.5,-31,-21.8,-35.2C-17.2,-39.5,-8.6,-38.8,-0.1,-38.6C8.4,-38.5,16.9,-39,23.3,-35.5Z" width="100%" height="100%" transform="translate(50 50)" stroke-width="0" style="transition: all 0.3s ease 0s;"></path>
              </svg>