<!--?xml version="1.0" standalone="no"?-->
              <svg id="sw-js-blob-svg" viewBox="0 0 100 100" xmlns="http://www.w3.org/2000/svg" version="1.1">
                    <defs> 
                        <linearGradient id="sw-gradient" x1="0" x2="1" y1="1" y2="0">
                            <stop id="stop1" stop-color="rgba(248, 117, 55, 1)" offset="0%"></stop>
                            <stop id="stop2" stop-color="rgba(251, 168, 31, 1)" offset="100%"></stop>
                        </linearGradient>
                    </defs>
                <path fill="url(#sw-gradient)" d="M20.2,-31.8C27.3,-27,34.8,-23.2,39.2,-16.9C43.6,-10.7,44.8,-2,43.1,5.9C41.5,13.8,37,21,31.1,25.7C25.1,30.4,17.7,32.6,10.1,35.3C2.5,37.9,-5.3,41.1,-11.2,39C-17.1,36.9,-21.3,29.5,-25.4,23C-29.4,16.5,-33.5,10.9,-36,4.2C-38.6,-2.6,-39.6,-10.6,-37.2,-17.4C-34.8,-24.2,-28.8,-29.9,-22,-34.8C-15.2,-39.8,-7.6,-44.1,-0.5,-43.3C6.6,-42.5,13.2,-36.6,20.2,-31.8Z" width="100%" height="100%" transform="translate(50 50)" stroke-width="0" style="transition: all 0.3s ease 0s;"></path>
              </svg>