<!--?xml version="1.0" standalone="no"?-->
              <svg id="sw-js-blob-svg" viewBox="0 0 100 100" xmlns="http://www.w3.org/2000/svg" version="1.1">
                    <defs> 
                        <linearGradient id="sw-gradient" x1="0" x2="1" y1="1" y2="0">
                            <stop id="stop1" stop-color="rgba(248, 117, 55, 1)" offset="0%"></stop>
                            <stop id="stop2" stop-color="rgba(251, 168, 31, 1)" offset="100%"></stop>
                        </linearGradient>
                    </defs>
                <path fill="url(#sw-gradient)" d="M22.9,-35.5C29.1,-31.6,33.1,-24.3,35.3,-16.9C37.5,-9.4,38,-2,38,6.2C38,14.4,37.6,23.3,33.1,28.9C28.6,34.4,20,36.7,11.7,38.6C3.3,40.5,-4.7,42.1,-11.6,39.9C-18.4,37.7,-24.1,31.7,-29.8,25.6C-35.6,19.4,-41.6,13.1,-42.6,6.1C-43.6,-0.9,-39.7,-8.6,-36.1,-16.5C-32.5,-24.4,-29.3,-32.5,-23.4,-36.5C-17.4,-40.4,-8.7,-40.2,-0.2,-39.9C8.4,-39.7,16.7,-39.3,22.9,-35.5Z" width="100%" height="100%" transform="translate(50 50)" stroke-width="0" style="transition: all 0.3s ease 0s;"></path>
              </svg>