<!--?xml version="1.0" standalone="no"?-->
              <svg id="sw-js-blob-svg" viewBox="0 0 100 100" xmlns="http://www.w3.org/2000/svg" version="1.1">
                    <defs> 
                        <linearGradient id="sw-gradient" x1="0" x2="1" y1="1" y2="0">
                            <stop id="stop1" stop-color="rgba(248, 117, 55, 1)" offset="0%"></stop>
                            <stop id="stop2" stop-color="rgba(251, 168, 31, 1)" offset="100%"></stop>
                        </linearGradient>
                    </defs>
                <path fill="url(#sw-gradient)" d="M22.7,-39.4C29,-35.8,33.2,-28.7,37.3,-21.6C41.4,-14.4,45.2,-7.2,45.5,0.1C45.7,7.5,42.3,15,37.4,20.6C32.5,26.3,26.1,30.2,19.6,33.2C13.1,36.3,6.6,38.5,-0.8,39.9C-8.1,41.2,-16.2,41.7,-22.3,38.4C-28.3,35.1,-32.3,28,-35.1,21C-37.8,14,-39.3,7,-40.5,-0.7C-41.6,-8.3,-42.4,-16.6,-39.6,-23.6C-36.9,-30.6,-30.5,-36.3,-23.3,-39.3C-16.1,-42.4,-8.1,-42.8,0.1,-43C8.2,-43.1,16.5,-43,22.7,-39.4Z" width="100%" height="100%" transform="translate(50 50)" stroke-width="0" style="transition: all 0.3s ease 0s;"></path>
              </svg>