<!--?xml version="1.0" standalone="no"?-->
              <svg id="sw-js-blob-svg" viewBox="0 0 100 100" xmlns="http://www.w3.org/2000/svg" version="1.1">
                    <defs> 
                        <linearGradient id="sw-gradient" x1="0" x2="1" y1="1" y2="0">
                            <stop id="stop1" stop-color="rgba(248, 117, 55, 1)" offset="0%"></stop>
                            <stop id="stop2" stop-color="rgba(251, 168, 31, 1)" offset="100%"></stop>
                        </linearGradient>
                    </defs>
                <path fill="url(#sw-gradient)" d="M19.7,-35.4C25.5,-30.7,30.2,-25.4,33.3,-19.4C36.5,-13.4,38,-6.7,37.7,-0.2C37.4,6.4,35.2,12.7,31.7,18C28.1,23.3,23.2,27.5,17.7,29.9C12.2,32.3,6.1,33,-0.3,33.6C-6.8,34.2,-13.5,34.7,-18.9,32.2C-24.3,29.6,-28.2,24.1,-32.3,18.3C-36.4,12.4,-40.6,6.2,-41.7,-0.6C-42.8,-7.4,-40.7,-14.8,-37.1,-21.6C-33.5,-28.4,-28.5,-34.6,-22.1,-38.9C-15.7,-43.3,-7.8,-45.9,-0.5,-45.1C6.9,-44.3,13.8,-40.2,19.7,-35.4Z" width="100%" height="100%" transform="translate(50 50)" stroke-width="0" style="transition: all 0.3s ease 0s;"></path>
              </svg>