<!--?xml version="1.0" standalone="no"?-->
              <svg id="sw-js-blob-svg" viewBox="0 0 100 100" xmlns="http://www.w3.org/2000/svg" version="1.1">
                    <defs> 
                        <linearGradient id="sw-gradient" x1="0" x2="1" y1="1" y2="0">
                            <stop id="stop1" stop-color="rgba(248, 117, 55, 1)" offset="0%"></stop>
                            <stop id="stop2" stop-color="rgba(251, 168, 31, 1)" offset="100%"></stop>
                        </linearGradient>
                    </defs>
                <path fill="url(#sw-gradient)" d="M19,-33.5C25.1,-29.4,31,-25.3,34.5,-19.7C38,-14.2,39.2,-7.1,38.2,-0.6C37.2,6,34.1,11.9,30.6,17.4C27,22.9,23,27.8,17.8,31.3C12.6,34.8,6.3,36.8,-0.4,37.6C-7.2,38.3,-14.3,37.8,-19.8,34.5C-25.4,31.2,-29.3,25.2,-32.8,19C-36.3,12.8,-39.4,6.4,-40.7,-0.8C-42,-7.9,-41.5,-15.8,-37.2,-20.6C-32.9,-25.3,-24.7,-26.9,-17.8,-30.7C-11,-34.4,-5.5,-40.3,0.5,-41.1C6.4,-41.9,12.9,-37.7,19,-33.5Z" width="100%" height="100%" transform="translate(50 50)" stroke-width="0" style="transition: all 0.3s ease 0s;"></path>
              </svg>