<!--?xml version="1.0" standalone="no"?-->
              <svg id="sw-js-blob-svg" viewBox="0 0 100 100" xmlns="http://www.w3.org/2000/svg" version="1.1">
                    <defs> 
                        <linearGradient id="sw-gradient" x1="0" x2="1" y1="1" y2="0">
                            <stop id="stop1" stop-color="rgba(248, 117, 55, 1)" offset="0%"></stop>
                            <stop id="stop2" stop-color="rgba(251, 168, 31, 1)" offset="100%"></stop>
                        </linearGradient>
                    </defs>
                <path fill="url(#sw-gradient)" d="M21.4,-36.7C26.5,-34.1,28.6,-25.9,31.7,-18.9C34.7,-11.8,38.7,-5.9,39.9,0.7C41,7.3,39.4,14.5,35.5,20.1C31.6,25.6,25.4,29.5,19.1,33.5C12.8,37.6,6.4,41.9,0.8,40.5C-4.8,39.1,-9.6,32,-14.8,27.3C-19.9,22.6,-25.5,20.3,-29.1,16.1C-32.7,12,-34.4,6,-33.7,0.4C-33,-5.2,-29.9,-10.3,-26.3,-14.6C-22.8,-18.8,-18.7,-22.1,-14.3,-25.1C-9.8,-28.1,-4.9,-30.9,1.6,-33.7C8.1,-36.4,16.3,-39.3,21.4,-36.7Z" width="100%" height="100%" transform="translate(50 50)" stroke-width="0" style="transition: all 0.3s ease 0s;"></path>
              </svg>