<!--?xml version="1.0" standalone="no"?-->
              <svg id="sw-js-blob-svg" viewBox="0 0 100 100" xmlns="http://www.w3.org/2000/svg" version="1.1">
                    <defs> 
                        <linearGradient id="sw-gradient" x1="0" x2="1" y1="1" y2="0">
                            <stop id="stop1" stop-color="rgba(248, 117, 55, 1)" offset="0%"></stop>
                            <stop id="stop2" stop-color="rgba(251, 168, 31, 1)" offset="100%"></stop>
                        </linearGradient>
                    </defs>
                <path fill="url(#sw-gradient)" d="M19.7,-30.6C26.2,-30.4,32.5,-26.4,33.7,-20.7C34.9,-14.9,31.1,-7.5,29.4,-1C27.6,5.5,28,10.9,26.7,16.6C25.5,22.3,22.6,28.3,17.9,31.4C13.2,34.5,6.6,34.7,0.5,33.8C-5.5,32.9,-11,30.8,-14.3,26.8C-17.5,22.8,-18.5,17,-19.5,12.3C-20.6,7.5,-21.7,3.7,-23.9,-1.3C-26.1,-6.2,-29.3,-12.5,-27.4,-15.9C-25.5,-19.2,-18.6,-19.7,-13.2,-20.5C-7.8,-21.4,-3.9,-22.5,1.4,-24.9C6.6,-27.3,13.2,-30.8,19.7,-30.6Z" width="100%" height="100%" transform="translate(50 50)" stroke-width="0" style="transition: all 0.3s ease 0s;"></path>
              </svg>