<!--?xml version="1.0" standalone="no"?-->
              <svg id="sw-js-blob-svg" viewBox="0 0 100 100" xmlns="http://www.w3.org/2000/svg" version="1.1">
                    <defs> 
                        <linearGradient id="sw-gradient" x1="0" x2="1" y1="1" y2="0">
                            <stop id="stop1" stop-color="rgba(248, 117, 55, 1)" offset="0%"></stop>
                            <stop id="stop2" stop-color="rgba(251, 168, 31, 1)" offset="100%"></stop>
                        </linearGradient>
                    </defs>
                <path fill="url(#sw-gradient)" d="M16.6,-29.1C19.2,-27.2,17.6,-18.2,18.2,-12.2C18.9,-6.1,21.8,-3.1,24,1.3C26.2,5.6,27.7,11.2,25.2,14C22.7,16.8,16.1,16.7,11.2,21.5C6.4,26.4,3.2,36.2,-0.4,37C-4,37.7,-8.1,29.4,-11.9,23.9C-15.6,18.4,-19.1,15.7,-23.7,12.2C-28.3,8.7,-34,4.3,-33.6,0.2C-33.2,-3.9,-26.7,-7.8,-22.4,-11.8C-18.1,-15.7,-15.9,-19.8,-12.6,-21.3C-9.2,-22.9,-4.6,-21.9,1.2,-24C7,-26,13.9,-31.1,16.6,-29.1Z" width="100%" height="100%" transform="translate(50 50)" stroke-width="0" style="transition: all 0.3s ease 0s;"></path>
              </svg>