<!--?xml version="1.0" standalone="no"?-->
              <svg id="sw-js-blob-svg" viewBox="0 0 100 100" xmlns="http://www.w3.org/2000/svg" version="1.1">
                    <defs> 
                        <linearGradient id="sw-gradient" x1="0" x2="1" y1="1" y2="0">
                            <stop id="stop1" stop-color="rgba(248, 117, 55, 1)" offset="0%"></stop>
                            <stop id="stop2" stop-color="rgba(251, 168, 31, 1)" offset="100%"></stop>
                        </linearGradient>
                    </defs>
                <path fill="url(#sw-gradient)" d="M13.6,-23.4C16.5,-22,16.7,-15.9,16.7,-11.2C16.7,-6.5,16.3,-3.3,19.6,1.9C22.9,7.1,29.8,14.2,31.1,21C32.4,27.8,28,34.4,21.9,36.7C15.7,39.1,7.9,37.3,2.7,32.6C-2.5,28,-5,20.6,-8.3,16.5C-11.5,12.5,-15.5,11.9,-19.2,9.7C-23,7.5,-26.4,3.7,-29.5,-1.8C-32.6,-7.3,-35.4,-14.7,-32.1,-17.6C-28.8,-20.6,-19.5,-19.2,-13.2,-18.6C-6.8,-18,-3.4,-18.2,1,-19.9C5.4,-21.6,10.8,-24.8,13.6,-23.4Z" width="100%" height="100%" transform="translate(50 50)" stroke-width="0" style="transition: all 0.3s ease 0s;"></path>
              </svg>