<!--?xml version="1.0" standalone="no"?-->
              <svg id="sw-js-blob-svg" viewBox="0 0 100 100" xmlns="http://www.w3.org/2000/svg" version="1.1">
                    <defs> 
                        <linearGradient id="sw-gradient" x1="0" x2="1" y1="1" y2="0">
                            <stop id="stop1" stop-color="rgba(248, 117, 55, 1)" offset="0%"></stop>
                            <stop id="stop2" stop-color="rgba(251, 168, 31, 1)" offset="100%"></stop>
                        </linearGradient>
                    </defs>
                <path fill="url(#sw-gradient)" d="M8.6,-18.5C11,-13.6,12.4,-10.8,16.7,-8.1C20.9,-5.4,28,-2.7,28.7,0.4C29.4,3.5,23.9,7.1,20.7,11.6C17.4,16.1,16.5,21.6,13.5,24C10.4,26.4,5.2,25.8,-1.5,28.3C-8.2,30.9,-16.4,36.7,-21,35.2C-25.7,33.7,-26.8,24.9,-28.8,17.9C-30.8,10.8,-33.7,5.4,-31.6,1.2C-29.5,-2.9,-22.4,-5.9,-17.3,-7.6C-12.2,-9.3,-9,-9.8,-6.5,-14.4C-3.9,-19.1,-2,-28.1,0.6,-29.1C3.2,-30.2,6.3,-23.3,8.6,-18.5Z" width="100%" height="100%" transform="translate(50 50)" stroke-width="0" style="transition: all 0.3s ease 0s;"></path>
              </svg>