<!--?xml version="1.0" standalone="no"?-->
              <svg id="sw-js-blob-svg" viewBox="0 0 100 100" xmlns="http://www.w3.org/2000/svg" version="1.1">
                    <defs> 
                        <linearGradient id="sw-gradient" x1="0" x2="1" y1="1" y2="0">
                            <stop id="stop1" stop-color="rgba(248, 117, 55, 1)" offset="0%"></stop>
                            <stop id="stop2" stop-color="rgba(251, 168, 31, 1)" offset="100%"></stop>
                        </linearGradient>
                    </defs>
                <path fill="url(#sw-gradient)" d="M13.1,-19.6C17.8,-19.9,23,-18.1,26,-14.5C29,-10.8,29.8,-5.4,29.2,-0.3C28.6,4.7,26.6,9.5,23.7,13.2C20.7,17,16.9,19.7,12.8,19.9C8.7,20,4.3,17.5,0.7,16.2C-2.9,15,-5.8,15,-12.6,16.5C-19.5,17.9,-30.2,20.8,-35.6,18.3C-41.1,15.8,-41.2,7.9,-37.8,1.9C-34.5,-4,-27.7,-8.1,-24.4,-14.1C-21,-20.2,-21,-28.3,-17.5,-28.8C-14,-29.2,-7,-21.9,-1.4,-19.4C4.2,-17,8.4,-19.4,13.1,-19.6Z" width="100%" height="100%" transform="translate(50 50)" stroke-width="0" style="transition: all 0.3s ease 0s;"></path>
              </svg>