<!--?xml version="1.0" standalone="no"?-->
              <svg id="sw-js-blob-svg" viewBox="0 0 100 100" xmlns="http://www.w3.org/2000/svg" version="1.1">
                    <defs> 
                        <linearGradient id="sw-gradient" x1="0" x2="1" y1="1" y2="0">
                            <stop id="stop1" stop-color="rgba(248, 117, 55, 1)" offset="0%"></stop>
                            <stop id="stop2" stop-color="rgba(251, 168, 31, 1)" offset="100%"></stop>
                        </linearGradient>
                    </defs>
                <path fill="url(#sw-gradient)" d="M6.6,-14C10.3,-9.3,16.2,-11,19.7,-9.8C23.2,-8.5,24.4,-4.3,26.3,1.1C28.3,6.5,31,13,30.6,19.7C30.2,26.3,26.7,33.2,21,35.2C15.4,37.1,7.7,34.3,2.6,29.8C-2.5,25.3,-5,19.2,-9.1,16.3C-13.2,13.4,-18.8,13.7,-19.5,11.6C-20.3,9.4,-16.2,4.7,-15.8,0.2C-15.5,-4.3,-18.9,-8.6,-19.9,-13.8C-20.8,-18.9,-19.4,-24.9,-15.6,-29.6C-11.9,-34.4,-6,-37.7,-2.3,-33.8C1.5,-29.9,2.9,-18.8,6.6,-14Z" width="100%" height="100%" transform="translate(50 50)" stroke-width="0" style="transition: all 0.3s ease 0s;"></path>
              </svg>